<?xml version="1.0" encoding="UTF-8" standalone="no"?>
<!-- Created with Inkscape (http://www.inkscape.org/) -->

<svg
   width="149.93521mm"
   height="46.507725mm"
   viewBox="0 0 149.93521 46.507725"
   version="1.1"
   id="svg5"
   inkscape:version="1.2 (dc2aedaf03, 2022-05-15)"
   sodipodi:docname="logo.svg"
   xmlns:inkscape="http://www.inkscape.org/namespaces/inkscape"
   xmlns:sodipodi="http://sodipodi.sourceforge.net/DTD/sodipodi-0.dtd"
   xmlns="http://www.w3.org/2000/svg"
   xmlns:svg="http://www.w3.org/2000/svg">
  <sodipodi:namedview
     id="namedview7"
     pagecolor="#ffffff"
     bordercolor="#000000"
     borderopacity="0.25"
     inkscape:showpageshadow="2"
     inkscape:pageopacity="0.0"
     inkscape:pagecheckerboard="0"
     inkscape:deskcolor="#d1d1d1"
     inkscape:document-units="mm"
     showgrid="false"
     inkscape:zoom="0.73673541"
     inkscape:cx="354.94425"
     inkscape:cy="360.37361"
     inkscape:window-width="1920"
     inkscape:window-height="1002"
     inkscape:window-x="-8"
     inkscape:window-y="-8"
     inkscape:window-maximized="1"
     inkscape:current-layer="layer1" />
  <defs
     id="defs2" />
  <g
     inkscape:label="Layer 1"
     inkscape:groupmode="layer"
     id="layer1"
     transform="translate(-11.200946,-53.516814)">
    <g
       aria-label="UX"
       id="text741"
       style="font-weight:bold;font-size:50.8px;font-family:'Courier New';-inkscape-font-specification:'Courier New Bold';stroke-width:0.264583">
      <path
         d="M 11.200946,75.468962 V 57.981658 q 0,-2.232422 0.992187,-3.348633 1.016992,-1.116211 2.654102,-1.116211 1.711523,0 2.70371,1.116211 1.016993,1.116211 1.016993,3.348633 v 17.884179 q 0,3.050977 0.669726,5.109766 0.694531,2.033984 2.430859,3.175 1.736329,1.116211 4.861719,1.116211 4.316016,0 6.101953,-2.282031 1.785938,-2.306836 1.785938,-6.970118 V 57.981658 q 0,-2.257227 0.992187,-3.348633 0.992188,-1.116211 2.654102,-1.116211 1.661914,0 2.678906,1.116211 1.041797,1.091406 1.041797,3.348633 v 17.487304 q 0,4.266407 -0.84336,7.118946 -0.818554,2.852539 -3.12539,5.010546 -1.984375,1.835547 -4.613672,2.678907 -2.629297,0.843359 -6.151562,0.843359 -4.191993,0 -7.218164,-0.892969 -3.026172,-0.917773 -4.936133,-2.802929 -1.909961,-1.909961 -2.80293,-4.861719 -0.892968,-2.976563 -0.892968,-7.094141 z"
         style="font-family:'Arial Rounded MT Bold';-inkscape-font-specification:'Arial Rounded MT Bold,  Bold';fill:#008000"
         id="path2509" />
      <path
         d="M 48.407975,83.431267 56.543913,71.549822 49.697819,60.983025 q -0.967383,-1.537891 -1.463477,-2.629297 -0.471289,-1.116211 -0.471289,-2.133203 0,-1.041797 0.917774,-1.860351 0.942578,-0.84336 2.282031,-0.84336 1.537891,0 2.38125,0.917774 0.868164,0.892968 2.38125,3.348632 l 5.457031,8.830469 5.829102,-8.830469 q 0.719336,-1.116211 1.215429,-1.909961 0.520899,-0.793749 0.992188,-1.314648 0.471289,-0.520898 1.041797,-0.768945 0.595312,-0.272852 1.364257,-0.272852 1.389063,0 2.257227,0.84336 0.892969,0.818554 0.892969,1.95957 0,1.661914 -1.909961,4.514453 L 65.696842,71.549822 73.4111,83.431267 q 1.041797,1.562695 1.513086,2.604492 0.471289,1.016992 0.471289,1.934766 0,0.868164 -0.42168,1.5875 -0.42168,0.719336 -1.190625,1.141015 -0.768945,0.42168 -1.736328,0.42168 -1.041797,0 -1.761133,-0.446484 -0.719336,-0.42168 -1.16582,-1.066602 -0.446484,-0.644922 -1.661914,-2.505273 L 61.058366,77.031658 54.261881,87.400017 q -0.79375,1.240234 -1.141015,1.736328 -0.322461,0.496094 -0.79375,0.967383 -0.471289,0.471289 -1.116211,0.74414 -0.644922,0.272852 -1.513086,0.272852 -1.339453,0 -2.232422,-0.818555 -0.868164,-0.818554 -0.868164,-2.38125 0,-1.835547 1.810742,-4.489648 z"
         style="font-family:'Arial Rounded MT Bold';-inkscape-font-specification:'Arial Rounded MT Bold,  Bold';fill:#008000"
         id="path2511" />
    </g>
    <g
       aria-label="lois"
       id="text1055"
       style="font-weight:bold;font-size:33.8667px;font-family:'Arial Rounded MT Bold';-inkscape-font-specification:'Arial Rounded MT Bold,  Bold';fill:#008000;stroke-width:0.264583">
      <path
         d="m 94.097283,78.031029 v 18.05783 h 4.067973 q 1.223699,0 1.73633,0.479558 0.529164,0.463021 0.529164,1.223699 0,0.744141 -0.529164,1.223699 -0.512631,0.463021 -1.73633,0.463021 H 86.639333 q -1.223699,0 -1.752866,-0.463021 -0.512631,-0.479558 -0.512631,-1.240236 0,-0.744141 0.512631,-1.207162 0.529167,-0.479558 1.752866,-0.479558 h 4.067973 V 81.421006 h -2.728518 q -1.207163,0 -1.73633,-0.463021 -0.529167,-0.479558 -0.529167,-1.240236 0,-0.744141 0.51263,-1.207162 0.529168,-0.479558 1.752867,-0.479558 z"
         style="font-family:'Courier New';-inkscape-font-specification:'Courier New Bold';fill:#000000"
         id="path2514" />
      <path
         d="m 121.53129,92.252397 q 0,1.951304 -1.0914,3.786852 -1.07487,1.819013 -3.22462,2.91042 -2.1332,1.074871 -4.46484,1.074871 -2.31511,0 -4.43178,-1.058335 -2.11667,-1.07487 -3.22461,-2.910419 -1.10795,-1.835549 -1.10795,-3.836462 0,-2.033986 1.12448,-3.98529 1.12448,-1.967841 3.22462,-3.092321 2.11667,-1.12448 4.41524,-1.12448 2.3151,0 4.44831,1.157553 2.14974,1.141017 3.24115,3.092321 1.0914,1.934767 1.0914,3.98529 z m -3.38997,0.01654 q 0,-1.637111 -1.17409,-3.009638 -1.60404,-1.852085 -4.2168,-1.852085 -2.29857,0 -3.83647,1.471746 -1.53789,1.471746 -1.53789,3.406514 0,1.587501 1.55443,2.976565 1.55443,1.372527 3.81993,1.372527 2.28203,0 3.83646,-1.372527 1.55443,-1.389064 1.55443,-2.993102 z"
         style="font-family:'Courier New';-inkscape-font-specification:'Courier New Bold';fill:#000000"
         id="path2516" />
      <path
         d="m 134.26438,78.031029 v 3.588415 h -4.0349 v -3.588415 z m 0.46302,6.432688 v 11.625142 h 4.06797 q 1.2237,0 1.73633,0.479558 0.52917,0.463021 0.52917,1.223699 0,0.744141 -0.52917,1.223699 -0.51263,0.463021 -1.73633,0.463021 h -11.52592 q -1.2237,0 -1.75287,-0.463021 -0.51263,-0.479558 -0.51263,-1.240236 0,-0.744141 0.51263,-1.207162 0.52917,-0.479558 1.75287,-0.479558 h 4.06797 v -8.235164 h -2.72852 q -1.20716,0 -1.73633,-0.463022 -0.52916,-0.479557 -0.52916,-1.240235 0,-0.744142 0.51263,-1.207163 0.52916,-0.479558 1.75286,-0.479558 z"
         style="font-family:'Courier New';-inkscape-font-specification:'Courier New Bold';fill:#000000"
         id="path2518" />
      <path
         d="m 157.0351,88.432471 q -0.82682,-0.51263 -1.73633,-0.760678 -0.9095,-0.264583 -1.90169,-0.264583 -1.96784,0 -3.1254,0.644922 -0.51263,0.28112 -0.51263,0.61185 0,0.380339 0.69454,0.744141 0.52916,0.264584 2.36471,0.512631 3.37344,0.463021 4.69636,0.926043 1.73633,0.611849 2.67891,1.819012 0.94258,1.207162 0.94258,2.546617 0,1.819012 -1.60404,3.042711 -2.29857,1.769403 -5.96967,1.769403 -1.47174,0 -2.72852,-0.264584 -1.24023,-0.248047 -2.28203,-0.744141 -0.24805,0.214974 -0.52917,0.330729 -0.28112,0.115756 -0.57877,0.115756 -0.79375,0 -1.27331,-0.512631 -0.46302,-0.529167 -0.46302,-1.752866 v -1.141017 q 0,-1.223699 0.46302,-1.73633 0.47956,-0.529167 1.24023,-0.529167 0.61185,0 1.02527,0.347266 0.41341,0.330729 0.64492,1.157553 0.77721,0.661459 1.86862,1.008725 1.09141,0.330729 2.51354,0.330729 2.33165,0 3.62149,-0.727604 0.61185,-0.363803 0.61185,-0.760678 0,-0.661459 -0.87643,-1.091407 -0.87644,-0.429949 -3.62149,-0.727605 -4.08451,-0.429949 -5.45704,-1.653648 -1.37252,-1.207162 -1.37252,-2.976565 0,-1.819012 1.53789,-3.026175 2.08359,-1.653647 5.45703,-1.653647 1.17409,0 2.24897,0.23151 1.0914,0.214974 2.08359,0.677996 0.31419,-0.231511 0.57878,-0.347266 0.28112,-0.115756 0.51263,-0.115756 0.69453,0 1.15755,0.529168 0.46302,0.51263 0.46302,1.736329 v 0.826824 q 0,1.107944 -0.26458,1.504819 -0.52917,0.760678 -1.43867,0.760678 -0.61185,0 -1.07488,-0.380339 -0.46302,-0.380339 -0.59531,-1.008725 z"
         style="font-family:'Courier New';-inkscape-font-specification:'Courier New Bold';fill:#000000"
         id="path2520" />
    </g>
  </g>
</svg>
