<svg viewBox="0 0 148.49869 45.071198" version="1.1" xmlns="http://www.w3.org/2000/svg">
   <style>
      .ux {
         fill: var(--primary-color);
      }

      .lois {
         fill: black;
      }

      @media (prefers-color-scheme: dark) {
         .lois {
            fill: #bbb;
         }
      }
   </style>
   <g transform="translate(-16.228759,-59.262893)">
      <g class="ux">
         <path
            d="M 16.228759,81.215041 V 63.727736 q 0,-2.232421 0.992187,-3.348632 1.016993,-1.116211 2.654102,-1.116211 1.711523,0 2.703711,1.116211 1.016992,1.116211 1.016992,3.348632 v 17.88418 q 0,3.050976 0.669727,5.109765 0.694531,2.033985 2.430859,3.175 1.736328,1.116211 4.861719,1.116211 4.316015,0 6.101953,-2.282031 1.785937,-2.306836 1.785937,-6.970117 V 63.727736 q 0,-2.257226 0.992188,-3.348632 0.992187,-1.116211 2.654101,-1.116211 1.661914,0 2.678906,1.116211 1.041797,1.091406 1.041797,3.348632 v 17.487305 q 0,4.266406 -0.843359,7.118945 -0.818555,2.852539 -3.125391,5.010547 -1.984375,1.835547 -4.613672,2.678906 -2.629296,0.843359 -6.151562,0.843359 -4.191992,0 -7.218164,-0.892968 -3.026172,-0.917774 -4.936133,-2.80293 -1.909961,-1.909961 -2.802929,-4.861719 -0.892969,-2.976562 -0.892969,-7.09414 z" />
         <path
            d="M 53.435789,89.177345 61.571726,77.2959 54.725632,66.729104 q -0.967382,-1.537891 -1.463476,-2.629297 -0.471289,-1.116211 -0.471289,-2.133203 0,-1.041797 0.917773,-1.860352 0.942578,-0.843359 2.282031,-0.843359 1.537891,0 2.38125,0.917773 0.868164,0.892969 2.38125,3.348633 l 5.457032,8.830469 5.829101,-8.830469 q 0.719336,-1.116211 1.21543,-1.909961 0.520898,-0.79375 0.992187,-1.314648 0.471289,-0.520899 1.041797,-0.768946 0.595313,-0.272851 1.364258,-0.272851 1.389062,0 2.257226,0.843359 0.892969,0.818555 0.892969,1.95957 0,1.661914 -1.909961,4.514453 L 70.724656,77.2959 78.438913,89.177345 q 1.041797,1.562696 1.513086,2.604493 0.471289,1.016992 0.471289,1.934765 0,0.868164 -0.421679,1.5875 -0.42168,0.719336 -1.190625,1.141016 -0.768946,0.421679 -1.736328,0.421679 -1.041797,0 -1.761133,-0.446484 -0.719336,-0.42168 -1.165821,-1.066602 -0.446484,-0.644921 -1.661914,-2.505273 L 66.086179,82.777736 59.289695,93.146095 q -0.79375,1.240235 -1.141016,1.736328 -0.322461,0.496094 -0.79375,0.967383 -0.471289,0.471289 -1.116211,0.744141 -0.644922,0.272851 -1.513086,0.272851 -1.339453,0 -2.232421,-0.818554 -0.868164,-0.818555 -0.868164,-2.38125 0,-1.835547 1.810742,-4.489649 z" />
      </g>
      <g class="lois">
         <path
            d="m 94.579719,87.136162 v 13.262248 h 7.309121 v -3.208072 q 0,-1.223699 0.46302,-1.73633 0.47956,-0.529167 1.24024,-0.529167 0.74414,0 1.20716,0.529167 0.47956,0.512631 0.47956,1.73633 v 6.598052 H 89.221902 q -1.223699,0 -1.752867,-0.46302 -0.51263,-0.47956 -0.51263,-1.24024 0,-0.74414 0.51263,-1.20716 0.529168,-0.47956 1.752867,-0.47956 h 1.96784 V 87.136162 h -1.96784 q -1.223699,0 -1.752867,-0.463022 -0.51263,-0.479557 -0.51263,-1.240235 0,-0.760678 0.51263,-1.223699 0.529168,-0.479558 1.752867,-0.479558 l 7.342194,0.01654 q 1.223699,0 1.73633,0.463022 0.529167,0.463021 0.529167,1.223699 0,0.760678 -0.529167,1.240235 -0.512631,0.463022 -1.73633,0.463022 z" />
         <path
            d="m 125.12259,96.561952 q 0,1.951304 -1.09141,3.786848 -1.07487,1.81902 -3.22461,2.91042 -2.13321,1.07487 -4.46485,1.07487 -2.31511,0 -4.43178,-1.05833 -2.11667,-1.07487 -3.22461,-2.91042 -1.10794,-1.835548 -1.10794,-3.836461 0,-2.033986 1.12448,-3.98529 1.12448,-1.967841 3.22461,-3.092321 2.11667,-1.12448 4.41524,-1.12448 2.31511,0 4.44831,1.157553 2.14974,1.141017 3.24115,3.092321 1.09141,1.934767 1.09141,3.98529 z m -3.38998,0.01654 q 0,-1.637111 -1.17409,-3.009638 -1.60404,-1.852085 -4.2168,-1.852085 -2.29857,0 -3.83646,1.471746 -1.5379,1.471746 -1.5379,3.406514 0,1.587501 1.55443,2.976565 1.55443,1.372526 3.81993,1.372526 2.28203,0 3.83646,-1.372526 1.55443,-1.389064 1.55443,-2.993102 z" />
         <path
            d="m 137.85567,82.340584 v 3.588415 h -4.0349 v -3.588415 z m 0.46302,6.432689 v 11.625137 h 4.06797 q 1.2237,0 1.73633,0.47956 0.52917,0.46302 0.52917,1.2237 0,0.74414 -0.52917,1.2237 -0.51263,0.46302 -1.73633,0.46302 h -11.52592 q -1.2237,0 -1.75286,-0.46302 -0.51263,-0.47956 -0.51263,-1.24024 0,-0.74414 0.51263,-1.20716 0.52916,-0.47956 1.75286,-0.47956 h 4.06797 v -8.23516 h -2.72851 q -1.20717,0 -1.73633,-0.463022 -0.52917,-0.479557 -0.52917,-1.240235 0,-0.744141 0.51263,-1.207163 0.52917,-0.479557 1.75287,-0.479557 z" />
         <path
            d="m 160.6264,92.742026 q -0.82683,-0.51263 -1.73633,-0.760677 -0.90951,-0.264584 -1.9017,-0.264584 -1.96784,0 -3.12539,0.644922 -0.51263,0.28112 -0.51263,0.61185 0,0.380339 0.69453,0.744141 0.52917,0.264584 2.36471,0.512631 3.37345,0.463021 4.69636,0.926043 1.73633,0.611849 2.67891,1.819012 0.94258,1.207162 0.94258,2.546617 0,1.819009 -1.60404,3.042709 -2.29857,1.7694 -5.96966,1.7694 -1.47175,0 -2.72852,-0.26458 -1.24024,-0.24805 -2.28204,-0.74414 -0.24804,0.21497 -0.52916,0.33073 -0.28112,0.11575 -0.57878,0.11575 -0.79375,0 -1.27331,-0.51263 -0.46302,-0.52916 -0.46302,-1.75286 v -1.14102 q 0,-1.223698 0.46302,-1.736329 0.47956,-0.529167 1.24024,-0.529167 0.61185,0 1.02526,0.347266 0.41341,0.330729 0.64492,1.157553 0.77722,0.661457 1.86862,1.008727 1.09141,0.33073 2.51355,0.33073 2.33164,0 3.62148,-0.72761 0.61185,-0.3638 0.61185,-0.760675 0,-0.661459 -0.87643,-1.091407 -0.87643,-0.429949 -3.62149,-0.727605 -4.08451,-0.429949 -5.45703,-1.653648 -1.37253,-1.207162 -1.37253,-2.976565 0,-1.819012 1.53789,-3.026175 2.0836,-1.653647 5.45704,-1.653647 1.17409,0 2.24896,0.23151 1.09141,0.214975 2.08359,0.677996 0.3142,-0.231511 0.57878,-0.347266 0.28112,-0.115755 0.51263,-0.115755 0.69453,0 1.15755,0.529167 0.46303,0.51263 0.46303,1.736329 v 0.826824 q 0,1.107944 -0.26459,1.504819 -0.52916,0.760678 -1.43867,0.760678 -0.61185,0 -1.07487,-0.380339 -0.46302,-0.380339 -0.59531,-1.008725 z" />
      </g>
   </g>
</svg>