<?xml version="1.0" encoding="UTF-8" standalone="no"?>
<svg width="8.9159117mm" height="5.2227769mm" viewBox="0 0 8.9159116 5.2227769" version="1.1"
   xmlns="http://www.w3.org/2000/svg" xmlns:svg="http://www.w3.org/2000/svg">

   <g transform="translate(-33.732682,-82.401144)">
      <g>
         <path
            d="m 33.732682,85.450059 v -2.428794 q 0,-0.310059 0.137804,-0.465088 0.141249,-0.155029 0.368625,-0.155029 0.237712,0 0.375516,0.155029 0.141249,0.155029 0.141249,0.465088 v 2.483916 q 0,0.423747 0.09302,0.70969 0.09646,0.282498 0.33762,0.440972 0.241157,0.15503 0.675239,0.15503 0.599447,0 0.847494,-0.316949 0.248047,-0.320394 0.248047,-0.968073 v -2.504586 q 0,-0.313504 0.137804,-0.465088 0.137804,-0.155029 0.368625,-0.155029 0.230822,0 0.372071,0.155029 0.144694,0.151584 0.144694,0.465088 v 2.428794 q 0,0.592557 -0.117133,0.988743 -0.113688,0.396186 -0.434083,0.69591 -0.275607,0.254937 -0.640788,0.372071 -0.36518,0.117133 -0.854384,0.117133 -0.582221,0 -1.002523,-0.124024 -0.420302,-0.127468 -0.685575,-0.389296 -0.265272,-0.265272 -0.389296,-0.675239 -0.124023,-0.413412 -0.124023,-0.985298 z"
            style="fill:#008000" />
         <path
            d="m 38.900328,86.555936 1.129992,-1.650202 -0.950847,-1.467612 q -0.134359,-0.213596 -0.203261,-0.36518 -0.06546,-0.15503 -0.06546,-0.296279 0,-0.144694 0.127469,-0.258382 0.130914,-0.117133 0.316949,-0.117133 0.213596,0 0.330729,0.127468 0.120579,0.124024 0.33073,0.465089 l 0.757921,1.226454 0.809598,-1.226454 q 0.09991,-0.15503 0.16881,-0.265273 0.07235,-0.110243 0.137804,-0.18259 0.06546,-0.07235 0.144694,-0.106798 0.08268,-0.0379 0.18948,-0.0379 0.192926,0 0.313504,0.117133 0.124024,0.113688 0.124024,0.272163 0,0.230821 -0.265273,0.627008 l -0.995633,1.488282 1.071426,1.650202 q 0.144694,0.217041 0.21015,0.361735 0.06546,0.141249 0.06546,0.268717 0,0.120579 -0.05857,0.220487 -0.05857,0.09991 -0.165365,0.158474 -0.106798,0.05857 -0.241157,0.05857 -0.144694,0 -0.244602,-0.06201 -0.09991,-0.05857 -0.161919,-0.148139 -0.06201,-0.08957 -0.230822,-0.347955 l -0.888835,-1.39871 -0.943957,1.440051 q -0.110243,0.172255 -0.158474,0.241157 -0.04479,0.0689 -0.110244,0.134359 -0.06546,0.06546 -0.155029,0.103353 -0.08957,0.0379 -0.210151,0.0379 -0.186035,0 -0.310059,-0.113688 -0.120578,-0.113689 -0.120578,-0.33073 0,-0.254937 0.251492,-0.623562 z"
            style="fill:#008000" />
      </g>
   </g>
</svg>