<?xml version="1.0" encoding="UTF-8" standalone="no"?>
<svg width="80mm" height="80mm" viewBox="0 0 80 80" version="1.1" xmlns="http://www.w3.org/2000/svg"
   xmlns:svg="http://www.w3.org/2000/svg">
   <g>
      <rect width="100%" height="100%" fill="white" />
      <g fill="green" transform="translate(0, 5)">
         <path
            d="M 7.609655,40.992537 V 23.505233 q 0,-2.232422 0.9921875,-3.348633 1.0169922,-1.116211 2.6541015,-1.116211 1.711523,0 2.703711,1.116211 1.016992,1.116211 1.016992,3.348633 v 17.884179 q 0,3.050977 0.669727,5.109766 0.694531,2.033984 2.430859,3.175 1.736328,1.116211 4.861719,1.116211 4.316015,0 6.101953,-2.282032 1.785937,-2.306836 1.785937,-6.970117 V 23.505233 q 0,-2.257227 0.992188,-3.348633 0.992187,-1.116211 2.654101,-1.116211 1.661914,0 2.678906,1.116211 1.041797,1.091406 1.041797,3.348633 v 17.487304 q 0,4.266406 -0.843359,7.118945 -0.818555,2.852539 -3.125391,5.010547 -1.984375,1.835547 -4.613671,2.678906 -2.629297,0.84336 -6.151563,0.84336 -4.191992,0 -7.218164,-0.892969 -3.026172,-0.917773 -4.936133,-2.80293 Q 9.3955925,51.038435 8.5026238,48.086678 7.609655,45.110115 7.609655,40.992537 Z" />
         <path
            d="M 44.816685,48.954842 52.952622,37.073397 46.106529,26.5066 q -0.967383,-1.537891 -1.463477,-2.629297 -0.471289,-1.116211 -0.471289,-2.133203 0,-1.041797 0.917773,-1.860352 0.942578,-0.843359 2.282032,-0.843359 1.53789,0 2.38125,0.917773 0.868164,0.892969 2.381249,3.348633 l 5.457032,8.830469 5.829101,-8.830469 q 0.719336,-1.116211 1.21543,-1.909961 0.520898,-0.79375 0.992187,-1.314648 0.471289,-0.520899 1.041797,-0.768945 0.595313,-0.272852 1.364258,-0.272852 1.389062,0 2.257226,0.843359 0.892969,0.818555 0.892969,1.959571 0,1.661914 -1.909961,4.514453 l -7.168554,10.715625 7.714257,11.881445 q 1.041797,1.562695 1.513086,2.604492 0.471289,1.016992 0.471289,1.934765 0,0.868165 -0.421679,1.5875 -0.42168,0.719336 -1.190625,1.141016 -0.768946,0.42168 -1.736328,0.42168 -1.041797,0 -1.761133,-0.446485 -0.719336,-0.421679 -1.16582,-1.066601 -0.446485,-0.644922 -1.661915,-2.505274 l -6.399609,-10.070703 -6.796484,10.36836 q -0.79375,1.240234 -1.141016,1.736328 -0.322461,0.496094 -0.79375,0.967383 -0.471289,0.471289 -1.116211,0.74414 -0.644921,0.272852 -1.513085,0.272852 -1.339454,0 -2.232422,-0.818555 -0.868164,-0.818555 -0.868164,-2.38125 0,-1.835547 1.810742,-4.489648 z" />
      </g>
   </g>
</svg>