<?xml version="1.0" encoding="UTF-8" standalone="no"?>
<svg
  viewBox="0 0 41.595657 6.6082029"
  version="1.1"
  xmlns="http://www.w3.org/2000/svg"
  xmlns:svg="http://www.w3.org/2000/svg"
>
  <style>
    .ux {
      fill: #008000;
    }
    .fordev {
      fill: black;
    }
    @media (prefers-color-scheme: dark) {
      .fordev {
        fill: #bbb;
      }
    }
  </style>
  <g transform="translate(-33.732682,-82.401148)">
    <g class="ux">
      <path
        d="m 33.732682,85.450059 v -2.428794 q 0,-0.310059 0.137804,-0.465088 0.141249,-0.155029 0.368625,-0.155029 0.237712,0 0.375516,0.155029 0.141249,0.155029 0.141249,0.465088 v 2.483916 q 0,0.423747 0.09302,0.70969 0.09646,0.282498 0.33762,0.440972 0.241157,0.15503 0.675239,0.15503 0.599447,0 0.847494,-0.316949 0.248047,-0.320394 0.248047,-0.968073 v -2.504586 q 0,-0.313504 0.137804,-0.465088 0.137804,-0.155029 0.368625,-0.155029 0.230822,0 0.372071,0.155029 0.144694,0.151584 0.144694,0.465088 v 2.428794 q 0,0.592557 -0.117133,0.988743 -0.113688,0.396186 -0.434083,0.69591 -0.275607,0.254937 -0.640788,0.372071 -0.36518,0.117133 -0.854384,0.117133 -0.582221,0 -1.002523,-0.124024 -0.420302,-0.127468 -0.685575,-0.389296 -0.265272,-0.265272 -0.389296,-0.675239 -0.124023,-0.413412 -0.124023,-0.985298 z"
      />
      <path
        d="m 38.900328,86.555936 1.129992,-1.650202 -0.950847,-1.467612 q -0.134359,-0.213596 -0.203261,-0.36518 -0.06546,-0.15503 -0.06546,-0.296279 0,-0.144694 0.127469,-0.258382 0.130914,-0.117133 0.316949,-0.117133 0.213596,0 0.330729,0.127468 0.120579,0.124024 0.33073,0.465089 l 0.757921,1.226454 0.809598,-1.226454 q 0.09991,-0.15503 0.16881,-0.265273 0.07235,-0.110243 0.137804,-0.18259 0.06546,-0.07235 0.144694,-0.106798 0.08268,-0.0379 0.18948,-0.0379 0.192926,0 0.313504,0.117133 0.124024,0.113688 0.124024,0.272163 0,0.230821 -0.265273,0.627008 l -0.995633,1.488282 1.071426,1.650202 q 0.144694,0.217041 0.21015,0.361735 0.06546,0.141249 0.06546,0.268717 0,0.120579 -0.05857,0.220487 -0.05857,0.09991 -0.165365,0.158474 -0.106798,0.05857 -0.241157,0.05857 -0.144694,0 -0.244602,-0.06201 -0.09991,-0.05857 -0.161919,-0.148139 -0.06201,-0.08957 -0.230822,-0.347955 l -0.888835,-1.39871 -0.943957,1.440051 q -0.110243,0.172255 -0.158474,0.241157 -0.04479,0.0689 -0.110244,0.134359 -0.06546,0.06546 -0.155029,0.103353 -0.08957,0.0379 -0.210151,0.0379 -0.186035,0 -0.310059,-0.113688 -0.120578,-0.113689 -0.120578,-0.33073 0,-0.254937 0.251492,-0.623562 z"
      />
    </g>
    <g class="fordev">
      <path
        d="m 43.720966,88.170642 v 0.520899 h 0.190686 q 0.114722,0 0.162781,0.04341 0.04961,0.04496 0.04961,0.116272 0,0.06976 -0.04961,0.113171 -0.04806,0.04496 -0.162781,0.04496 h -0.562756 q -0.114722,0 -0.164331,-0.04496 -0.04806,-0.04341 -0.04806,-0.113171 0,-0.07131 0.04961,-0.116272 0.04961,-0.04341 0.162781,-0.04341 h 0.05426 v -1.435572 h -0.05426 q -0.114722,0 -0.164331,-0.04341 -0.04806,-0.04496 -0.04806,-0.116272 0,-0.06976 0.04806,-0.113171 0.04961,-0.04496 0.164331,-0.04496 h 0.37207 v 0.108521 q 0.111621,-0.07596 0.230994,-0.113172 0.119373,-0.03721 0.244946,-0.03721 0.325562,0 0.555005,0.221692 0.229443,0.220142 0.229443,0.505396 0,0.314709 -0.271301,0.519348 -0.226343,0.170532 -0.510046,0.170532 -0.122473,0 -0.241846,-0.03566 -0.119372,-0.03566 -0.237195,-0.10697 z m 0.942578,-0.545703 q 0,-0.06666 -0.05271,-0.168982 -0.05271,-0.10387 -0.16278,-0.172082 -0.108521,-0.06976 -0.255799,-0.06976 -0.237194,0 -0.376721,0.178284 -0.09457,0.122473 -0.09457,0.235645 0,0.127124 0.134876,0.248046 0.136426,0.119373 0.336413,0.119373 0.201538,0 0.336414,-0.119373 0.134875,-0.119372 0.134875,-0.251147 z"
      />
      <path
        d="m 46.846357,87.668347 q 0,0.182935 -0.102319,0.355017 -0.100769,0.170532 -0.302308,0.272852 -0.199987,0.100769 -0.418579,0.100769 -0.217041,0 -0.415478,-0.09922 -0.198438,-0.100769 -0.302307,-0.272851 -0.10387,-0.172083 -0.10387,-0.359668 0,-0.190686 0.10542,-0.373621 0.10542,-0.184485 0.302307,-0.289905 0.198438,-0.10542 0.413928,-0.10542 0.217041,0 0.417029,0.108521 0.201538,0.10697 0.303858,0.289905 0.102319,0.181384 0.102319,0.37362 z m -0.31781,0.0016 q 0,-0.153479 -0.110071,-0.282153 -0.150378,-0.173633 -0.395325,-0.173633 -0.21549,0 -0.359668,0.137976 -0.144177,0.137976 -0.144177,0.319361 0,0.148828 0.145728,0.279052 0.145727,0.128675 0.358117,0.128675 0.213941,0 0.359668,-0.128675 0.145728,-0.130224 0.145728,-0.280603 z"
      />
      <path
        d="m 48.601289,86.938159 v 1.089856 q 0.100769,0 0.148828,0.04496 0.04806,0.04496 0.04806,0.114721 0,0.06976 -0.04961,0.114722 -0.04806,0.04341 -0.16278,0.04341 h -0.302308 v -0.07286 q -0.136425,0.06201 -0.260449,0.09302 -0.124023,0.03101 -0.235644,0.03101 -0.15658,0 -0.271302,-0.06511 -0.114721,-0.06666 -0.181384,-0.182935 -0.04806,-0.08372 -0.04806,-0.20929 v -0.683679 h -0.05426 q -0.114722,0 -0.164331,-0.04341 -0.04806,-0.04496 -0.04806,-0.116272 0,-0.06976 0.04806,-0.113171 0.04961,-0.04496 0.164331,-0.04496 h 0.37207 v 0.945679 q 0,0.100769 0.04806,0.148828 0.04961,0.04651 0.150379,0.04651 0.09612,0 0.206189,-0.03721 0.111621,-0.03876 0.274401,-0.137976 v -0.648023 h -0.114721 q -0.114722,0 -0.164331,-0.04341 -0.04806,-0.04496 -0.04806,-0.116272 0,-0.06976 0.04806,-0.113171 0.04961,-0.04496 0.164331,-0.04496 z"
      />
      <path
        d="m 49.765558,86.938159 v 0.198438 q 0.199988,-0.144178 0.31471,-0.192237 0.116272,-0.04806 0.217041,-0.04806 0.155029,0 0.300757,0.114722 0.09922,0.07752 0.09922,0.15813 0,0.06821 -0.04806,0.116272 -0.04651,0.04651 -0.113171,0.04651 -0.05891,0 -0.124023,-0.05891 -0.06511,-0.05891 -0.116272,-0.05891 -0.06666,0 -0.199988,0.08372 -0.131775,0.08372 -0.330213,0.251148 v 0.47904 h 0.452686 q 0.114722,0 0.162781,0.04496 0.04961,0.04341 0.04961,0.114721 0,0.06976 -0.04961,0.114722 -0.04806,0.04341 -0.162781,0.04341 h -0.959631 q -0.114722,0 -0.164331,-0.04341 -0.04806,-0.04496 -0.04806,-0.116272 0,-0.06976 0.04806,-0.113171 0.04961,-0.04496 0.164331,-0.04496 h 0.189135 v -0.772046 h -0.114721 q -0.114722,0 -0.164331,-0.04341 -0.04806,-0.04496 -0.04806,-0.116272 0,-0.06976 0.04806,-0.113171 0.04961,-0.04496 0.164331,-0.04496 z"
      />
      <path
        d="m 54.371479,86.335095 v 1.69292 h 0.05426 q 0.113172,0 0.162781,0.04496 0.04961,0.04341 0.04961,0.114721 0,0.06976 -0.04961,0.114722 -0.04806,0.04341 -0.162781,0.04341 h -0.37207 v -0.07751 q -0.108521,0.06356 -0.227893,0.09612 -0.117822,0.03256 -0.244946,0.03256 -0.358118,0 -0.576709,-0.206189 -0.218592,-0.207739 -0.218592,-0.516248 0,-0.322461 0.229444,-0.550354 0.229443,-0.227893 0.559655,-0.227893 0.124024,0 0.243396,0.03876 0.119373,0.03721 0.235645,0.113171 v -0.395325 h -0.05426 q -0.114722,0 -0.164331,-0.04341 -0.04806,-0.04496 -0.04806,-0.114722 0,-0.07131 0.04806,-0.114721 0.04961,-0.04496 0.164331,-0.04496 z m -0.31781,1.348755 q 0,-0.196887 -0.137976,-0.333313 -0.137976,-0.136426 -0.337964,-0.136426 -0.198437,0 -0.336414,0.136426 -0.137976,0.136426 -0.137976,0.328662 0,0.175183 0.124024,0.288355 0.124023,0.111621 0.350366,0.111621 0.224792,0 0.350366,-0.111621 0.125574,-0.113172 0.125574,-0.283704 z"
      />
      <path
        d="m 56.345002,87.803223 h -1.303797 q 0.04961,0.124023 0.175183,0.199987 0.127124,0.07597 0.342615,0.07597 0.176733,0 0.469739,-0.07597 0.120923,-0.031 0.167431,-0.031 0.06356,0 0.106971,0.04496 0.04341,0.04496 0.04341,0.113171 0,0.06201 -0.04651,0.10542 -0.06201,0.05736 -0.302307,0.110071 -0.240295,0.05116 -0.461987,0.05116 -0.381372,0 -0.610816,-0.215491 -0.227893,-0.215491 -0.227893,-0.5302 0,-0.334863 0.246497,-0.544153 0.248047,-0.21084 0.570508,-0.21084 0.193786,0 0.355017,0.06821 0.16278,0.06821 0.241845,0.147278 0.111621,0.114722 0.184485,0.283704 0.04961,0.117822 0.04961,0.272851 z m -0.351917,-0.31781 q -0.07286,-0.136426 -0.190686,-0.203089 -0.117822,-0.06821 -0.280603,-0.06821 -0.16123,0 -0.279053,0.06821 -0.117822,0.06666 -0.192236,0.203089 z"
      />
      <path
        d="m 57.455012,87.959802 0.342615,-0.703833 q -0.127124,0 -0.162781,-0.0217 -0.07752,-0.04806 -0.07752,-0.137976 0,-0.06976 0.04806,-0.113171 0.04961,-0.04496 0.164331,-0.04496 h 0.435633 q 0.114721,0 0.16278,0.04496 0.04961,0.04341 0.04961,0.114721 0,0.06976 -0.04961,0.114722 -0.04806,0.04341 -0.16278,0.04341 h -0.05271 l -0.531751,1.089856 H 57.289131 L 56.75738,87.255969 h -0.04496 q -0.114722,0 -0.164331,-0.04341 -0.04806,-0.04496 -0.04806,-0.116272 0,-0.06976 0.04806,-0.113171 0.04961,-0.04496 0.164331,-0.04496 h 0.42633 q 0.113172,0 0.161231,0.04496 0.04961,0.04341 0.04961,0.114721 0,0.08837 -0.07441,0.134876 -0.03721,0.02325 -0.165881,0.02325 z"
      />
      <path
        d="m 60.155622,87.803223 h -1.303796 q 0.04961,0.124023 0.175183,0.199987 0.127124,0.07597 0.342614,0.07597 0.176734,0 0.469739,-0.07597 0.120923,-0.031 0.167432,-0.031 0.06356,0 0.10697,0.04496 0.04341,0.04496 0.04341,0.113171 0,0.06201 -0.04651,0.10542 -0.06201,0.05736 -0.302307,0.110071 -0.240295,0.05116 -0.461987,0.05116 -0.381372,0 -0.610815,-0.215491 -0.227894,-0.215491 -0.227894,-0.5302 0,-0.334863 0.246497,-0.544153 0.248047,-0.21084 0.570508,-0.21084 0.193786,0 0.355017,0.06821 0.162781,0.06821 0.241846,0.147278 0.111621,0.114722 0.184485,0.283704 0.04961,0.117822 0.04961,0.272851 z m -0.351917,-0.31781 q -0.07286,-0.136426 -0.190686,-0.203089 -0.117822,-0.06821 -0.280603,-0.06821 -0.16123,0 -0.279052,0.06821 -0.117823,0.06666 -0.192237,0.203089 z"
      />
      <path
        d="m 61.422212,86.335095 v 1.69292 h 0.381372 q 0.114722,0 0.162781,0.04496 0.04961,0.04341 0.04961,0.114721 0,0.06976 -0.04961,0.114722 -0.04806,0.04341 -0.162781,0.04341 H 60.72303 q -0.114722,0 -0.164331,-0.04341 -0.04806,-0.04496 -0.04806,-0.116272 0,-0.06976 0.04806,-0.113171 0.04961,-0.04496 0.164331,-0.04496 h 0.381372 v -1.37511 h -0.255799 q -0.113171,0 -0.16278,-0.04341 -0.04961,-0.04496 -0.04961,-0.116272 0,-0.06976 0.04806,-0.113171 0.04961,-0.04496 0.164331,-0.04496 z"
      />
      <path
        d="m 63.994147,87.668347 q 0,0.182935 -0.102319,0.355017 -0.100769,0.170532 -0.302307,0.272852 -0.199988,0.100769 -0.418579,0.100769 -0.217041,0 -0.415479,-0.09922 -0.198437,-0.100769 -0.302307,-0.272851 -0.103869,-0.172083 -0.103869,-0.359668 0,-0.190686 0.10542,-0.373621 0.105419,-0.184485 0.302307,-0.289905 0.198437,-0.10542 0.413928,-0.10542 0.217041,0 0.417029,0.108521 0.201538,0.10697 0.303857,0.289905 0.102319,0.181384 0.102319,0.37362 z m -0.31781,0.0016 q 0,-0.153479 -0.11007,-0.282153 -0.150379,-0.173633 -0.395325,-0.173633 -0.215491,0 -0.359668,0.137976 -0.144177,0.137976 -0.144177,0.319361 0,0.148828 0.145727,0.279052 0.145728,0.128675 0.358118,0.128675 0.21394,0 0.359668,-0.128675 0.145727,-0.130224 0.145727,-0.280603 z"
      />
      <path
        d="m 64.679377,88.170642 v 0.520899 h 0.190686 q 0.114721,0 0.16278,0.04341 0.04961,0.04496 0.04961,0.116272 0,0.06976 -0.04961,0.113171 -0.04806,0.04496 -0.16278,0.04496 h -0.562757 q -0.114721,0 -0.164331,-0.04496 -0.04806,-0.04341 -0.04806,-0.113171 0,-0.07131 0.04961,-0.116272 0.04961,-0.04341 0.16278,-0.04341 h 0.05426 v -1.435572 h -0.05426 q -0.114721,0 -0.164331,-0.04341 -0.04806,-0.04496 -0.04806,-0.116272 0,-0.06976 0.04806,-0.113171 0.04961,-0.04496 0.164331,-0.04496 h 0.372071 v 0.108521 q 0.111621,-0.07596 0.230993,-0.113172 0.119373,-0.03721 0.244947,-0.03721 0.325561,0 0.555004,0.221692 0.229444,0.220142 0.229444,0.505396 0,0.314709 -0.271302,0.519348 -0.226342,0.170532 -0.510046,0.170532 -0.122473,0 -0.241846,-0.03566 -0.119372,-0.03566 -0.237194,-0.10697 z m 0.942578,-0.545703 q 0,-0.06666 -0.05271,-0.168982 -0.05271,-0.10387 -0.162781,-0.172082 -0.108521,-0.06976 -0.255798,-0.06976 -0.237195,0 -0.376722,0.178284 -0.09457,0.122473 -0.09457,0.235645 0,0.127124 0.134875,0.248046 0.136426,0.119373 0.336414,0.119373 0.201538,0 0.336413,-0.119373 0.134876,-0.119372 0.134876,-0.251147 z"
      />
      <path
        d="m 66.584686,88.170642 v 0.520899 h 0.190686 q 0.114722,0 0.162781,0.04341 0.04961,0.04496 0.04961,0.116272 0,0.06976 -0.04961,0.113171 -0.04806,0.04496 -0.162781,0.04496 h -0.562756 q -0.114722,0 -0.164331,-0.04496 -0.04806,-0.04341 -0.04806,-0.113171 0,-0.07131 0.04961,-0.116272 0.04961,-0.04341 0.162781,-0.04341 h 0.05426 v -1.435572 h -0.05426 q -0.114722,0 -0.164331,-0.04341 -0.04806,-0.04496 -0.04806,-0.116272 0,-0.06976 0.04806,-0.113171 0.04961,-0.04496 0.164331,-0.04496 h 0.37207 v 0.108521 q 0.111621,-0.07596 0.230994,-0.113172 0.119372,-0.03721 0.244946,-0.03721 0.325562,0 0.555005,0.221692 0.229443,0.220142 0.229443,0.505396 0,0.314709 -0.271301,0.519348 -0.226343,0.170532 -0.510046,0.170532 -0.122473,0 -0.241846,-0.03566 -0.119372,-0.03566 -0.237195,-0.10697 z m 0.942578,-0.545703 q 0,-0.06666 -0.05271,-0.168982 -0.05271,-0.10387 -0.16278,-0.172082 -0.108521,-0.06976 -0.255799,-0.06976 -0.237194,0 -0.376721,0.178284 -0.09457,0.122473 -0.09457,0.235645 0,0.127124 0.134876,0.248046 0.136426,0.119373 0.336413,0.119373 0.201538,0 0.336414,-0.119373 0.134875,-0.119372 0.134875,-0.251147 z"
      />
      <path
        d="m 69.682171,87.803223 h -1.303796 q 0.04961,0.124023 0.175183,0.199987 0.127124,0.07597 0.342615,0.07597 0.176733,0 0.469738,-0.07597 0.120923,-0.031 0.167432,-0.031 0.06356,0 0.10697,0.04496 0.04341,0.04496 0.04341,0.113171 0,0.06201 -0.04651,0.10542 -0.06201,0.05736 -0.302307,0.110071 -0.240296,0.05116 -0.461988,0.05116 -0.381372,0 -0.610815,-0.215491 -0.227893,-0.215491 -0.227893,-0.5302 0,-0.334863 0.246496,-0.544153 0.248047,-0.21084 0.570508,-0.21084 0.193787,0 0.355017,0.06821 0.162781,0.06821 0.241846,0.147278 0.111621,0.114722 0.184485,0.283704 0.04961,0.117822 0.04961,0.272851 z m -0.351916,-0.31781 q -0.07286,-0.136426 -0.190686,-0.203089 -0.117823,-0.06821 -0.280603,-0.06821 -0.161231,0 -0.279053,0.06821 -0.117822,0.06666 -0.192236,0.203089 z"
      />
      <path
        d="m 71.46501,86.938159 v 1.089856 q 0.100769,0 0.148828,0.04496 0.04806,0.04496 0.04806,0.114721 0,0.06976 -0.04961,0.114722 -0.04806,0.04341 -0.16278,0.04341 H 71.1472 v -0.07286 q -0.136426,0.06201 -0.26045,0.09302 -0.124023,0.03101 -0.235644,0.03101 -0.15658,0 -0.271301,-0.06511 -0.114722,-0.06666 -0.181385,-0.182935 -0.04806,-0.08372 -0.04806,-0.20929 v -0.683679 h -0.05426 q -0.114722,0 -0.164331,-0.04341 -0.04806,-0.04496 -0.04806,-0.116272 0,-0.06976 0.04806,-0.113171 0.04961,-0.04496 0.164331,-0.04496 h 0.37207 v 0.945679 q 0,0.100769 0.04806,0.148828 0.04961,0.04651 0.150379,0.04651 0.09612,0 0.206189,-0.03721 0.111621,-0.03876 0.274402,-0.137976 v -0.648023 h -0.114722 q -0.114722,0 -0.164331,-0.04341 -0.04806,-0.04496 -0.04806,-0.116272 0,-0.06976 0.04806,-0.113171 0.04961,-0.04496 0.164331,-0.04496 z"
      />
      <path
        d="m 72.629279,86.938159 v 0.198438 q 0.199988,-0.144178 0.31471,-0.192237 0.116272,-0.04806 0.217041,-0.04806 0.155029,0 0.300757,0.114722 0.09922,0.07752 0.09922,0.15813 0,0.06821 -0.04806,0.116272 -0.04651,0.04651 -0.113171,0.04651 -0.05891,0 -0.124024,-0.05891 -0.06511,-0.05891 -0.116271,-0.05891 -0.06666,0 -0.199988,0.08372 -0.131775,0.08372 -0.330213,0.251148 v 0.47904 h 0.452686 q 0.114722,0 0.162781,0.04496 0.04961,0.04341 0.04961,0.114721 0,0.06976 -0.04961,0.114722 -0.04806,0.04341 -0.162781,0.04341 h -0.959631 q -0.114722,0 -0.164332,-0.04341 -0.04806,-0.04496 -0.04806,-0.116272 0,-0.06976 0.04806,-0.113171 0.04961,-0.04496 0.164332,-0.04496 h 0.189135 v -0.772046 h -0.114721 q -0.114722,0 -0.164331,-0.04341 -0.04806,-0.04496 -0.04806,-0.116272 0,-0.06976 0.04806,-0.113171 0.04961,-0.04496 0.164331,-0.04496 z"
      />
      <path
        d="m 74.943866,87.31023 q -0.07751,-0.04806 -0.16278,-0.07131 -0.08527,-0.02481 -0.178284,-0.02481 -0.184485,0 -0.293005,0.06046 -0.04806,0.02635 -0.04806,0.05736 0,0.03566 0.06511,0.06976 0.04961,0.0248 0.221692,0.04806 0.316259,0.04341 0.440283,0.08682 0.162781,0.05736 0.251147,0.170533 0.08837,0.113171 0.08837,0.238745 0,0.170532 -0.150378,0.285254 -0.215491,0.165881 -0.559656,0.165881 -0.137976,0 -0.255799,-0.02481 -0.116271,-0.02325 -0.21394,-0.06976 -0.02325,0.02015 -0.04961,0.03101 -0.02635,0.01085 -0.05426,0.01085 -0.07441,0 -0.119372,-0.04806 -0.04341,-0.04961 -0.04341,-0.164331 v -0.10697 q 0,-0.114722 0.04341,-0.162781 0.04496,-0.04961 0.116272,-0.04961 0.05736,0 0.09612,0.03256 0.03876,0.03101 0.06046,0.10852 0.07286,0.06201 0.175184,0.09457 0.102319,0.03101 0.235644,0.03101 0.218591,0 0.339514,-0.06821 0.05736,-0.03411 0.05736,-0.07131 0,-0.06201 -0.08216,-0.102319 -0.08217,-0.04031 -0.339515,-0.06821 -0.382922,-0.04031 -0.511596,-0.155029 -0.128675,-0.113171 -0.128675,-0.279053 0,-0.170532 0.144178,-0.283703 0.195337,-0.15503 0.511596,-0.15503 0.110071,0 0.21084,0.0217 0.102319,0.02015 0.195337,0.06356 0.02946,-0.0217 0.05426,-0.03256 0.02636,-0.01085 0.04806,-0.01085 0.06511,0 0.108521,0.04961 0.04341,0.04806 0.04341,0.16278 v 0.07752 q 0,0.10387 -0.02481,0.141077 -0.04961,0.07131 -0.134875,0.07131 -0.05736,0 -0.100769,-0.03566 -0.04341,-0.03566 -0.05581,-0.09457 z"
      />
    </g>
  </g>
</svg>
