<?xml version="1.0" encoding="UTF-8" standalone="no"?>
<!-- Created with Inkscape (http://www.inkscape.org/) -->

<svg
   width="161.91214mm"
   height="27.532145mm"
   viewBox="0 0 161.91214 27.532145"
   version="1.1"
   id="svg5"
   sodipodi:docname="logo.svg"
   inkscape:version="1.2 (dc2aedaf03, 2022-05-15)"
   xmlns:inkscape="http://www.inkscape.org/namespaces/inkscape"
   xmlns:sodipodi="http://sodipodi.sourceforge.net/DTD/sodipodi-0.dtd"
   xmlns="http://www.w3.org/2000/svg"
   xmlns:svg="http://www.w3.org/2000/svg">
  <sodipodi:namedview
     id="namedview7"
     pagecolor="#ffffff"
     bordercolor="#000000"
     borderopacity="0.25"
     inkscape:showpageshadow="2"
     inkscape:pageopacity="0.0"
     inkscape:pagecheckerboard="0"
     inkscape:deskcolor="#d1d1d1"
     inkscape:document-units="mm"
     showgrid="false"
     inkscape:zoom="0.73673541"
     inkscape:cx="-8.8227061"
     inkscape:cy="99.764446"
     inkscape:window-width="1920"
     inkscape:window-height="1002"
     inkscape:window-x="-8"
     inkscape:window-y="-8"
     inkscape:window-maximized="1"
     inkscape:current-layer="layer1" />
  <defs
     id="defs2" />
  <g
     inkscape:label="Layer 1"
     inkscape:groupmode="layer"
     id="layer1"
     transform="translate(-18.218532,-83.219916)">
    <g
       aria-label="UX"
       id="text741"
       style="font-weight:bold;font-size:30.0063px;font-family:'Courier New';-inkscape-font-specification:'Courier New Bold';stroke-width:0.468848">
      <path
         d="M 18.218532,96.186506 V 85.857188 q 0,-1.318636 0.586061,-1.977954 0.600712,-0.659318 1.567712,-0.659318 1.010954,0 1.597015,0.659318 0.600712,0.659318 0.600712,1.977954 V 96.42093 q 0,1.802136 0.395591,3.018212 0.410242,1.201428 1.435848,1.875398 1.025606,0.65931 2.871697,0.65931 2.549363,0 3.604272,-1.34794 1.054909,-1.362587 1.054909,-4.117071 V 85.857188 q 0,-1.333287 0.58606,-1.977954 0.586061,-0.659318 1.567712,-0.659318 0.981652,0 1.582364,0.659318 0.615363,0.644667 0.615363,1.977954 v 10.329318 q 0,2.52006 -0.498151,4.204984 -0.4835,1.68492 -1.846091,2.95961 -1.172121,1.08421 -2.725181,1.58236 -1.553061,0.49815 -3.633576,0.49815 -2.476105,0 -4.26359,-0.52745 -1.787485,-0.54211 -2.915651,-1.65562 -1.128167,-1.12817 -1.655621,-2.8717 -0.527455,-1.758183 -0.527455,-4.190334 z"
         style="font-family:'Arial Rounded MT Bold';-inkscape-font-specification:'Arial Rounded MT Bold,  Bold';fill:#808000"
         id="path4754" />
      <path
         d="M 40.195804,100.88964 45.0015,93.871566 40.957682,87.630022 q -0.571409,-0.908394 -0.864439,-1.553061 -0.278379,-0.659318 -0.278379,-1.26003 0,-0.615364 0.542106,-1.098864 0.556758,-0.498151 1.347939,-0.498151 0.908394,0 1.406546,0.542106 0.512803,0.527455 1.406545,1.977954 l 3.223333,5.215939 3.443106,-5.215939 q 0.424894,-0.659318 0.717924,-1.128166 0.307682,-0.468849 0.586061,-0.77653 0.278378,-0.307682 0.615363,-0.454197 0.351636,-0.161167 0.805833,-0.161167 0.820485,0 1.333288,0.498151 0.527455,0.4835 0.527455,1.15747 0,0.981651 -1.128167,2.666576 l -4.234287,6.329453 4.55662,7.018074 q 0.615364,0.92305 0.893743,1.53841 0.278378,0.60071 0.278378,1.14282 0,0.5128 -0.249075,0.9377 -0.249076,0.42489 -0.703273,0.67396 -0.454197,0.24908 -1.025606,0.24908 -0.615363,0 -1.040257,-0.26373 -0.424894,-0.24907 -0.688622,-0.63001 -0.263727,-0.38094 -0.981651,-1.4798 l -3.78009,-5.948519 -4.014515,6.124329 q -0.468849,0.73258 -0.67397,1.02561 -0.19047,0.29303 -0.468848,0.57141 -0.278379,0.27838 -0.659318,0.43954 -0.38094,0.16117 -0.893743,0.16117 -0.791181,0 -1.318636,-0.4835 -0.512803,-0.4835 -0.512803,-1.40654 0,-1.08422 1.069561,-2.65193 z"
         style="font-family:'Arial Rounded MT Bold';-inkscape-font-specification:'Arial Rounded MT Bold,  Bold';fill:#808000"
         id="path4756" />
    </g>
    <g
       aria-label="pour developpeur"
       id="text745"
       style="font-weight:bold;font-size:12.7px;font-family:'Arial Rounded MT Bold';-inkscape-font-specification:'Arial Rounded MT Bold,  Bold';fill:#808000;stroke-width:0.264583">
      <path
         d="m 60.770512,107.39722 v 2.0836 h 0.762744 q 0.458886,0 0.651123,0.17363 0.198437,0.17983 0.198437,0.46509 0,0.27905 -0.198437,0.45268 -0.192237,0.17984 -0.651123,0.17984 H 59.28223 q -0.458886,0 -0.657324,-0.17984 -0.192236,-0.17363 -0.192236,-0.45268 0,-0.28526 0.198437,-0.46509 0.198438,-0.17363 0.651123,-0.17363 h 0.217041 v -5.74229 H 59.28223 q -0.458886,0 -0.657324,-0.17363 -0.192236,-0.17984 -0.192236,-0.46509 0,-0.27905 0.192236,-0.45269 0.198438,-0.17983 0.657324,-0.17983 h 1.488282 v 0.43408 q 0.446484,-0.30386 0.923974,-0.45268 0.47749,-0.14883 0.979785,-0.14883 1.302246,0 2.22002,0.88677 0.917773,0.88056 0.917773,2.02158 0,1.25884 -1.085205,2.07739 -0.905371,0.68213 -2.040185,0.68213 -0.489893,0 -0.967383,-0.14263 -0.47749,-0.14262 -0.948779,-0.42788 z m 3.770312,-2.18281 q 0,-0.26665 -0.21084,-0.67593 -0.21084,-0.41548 -0.651123,-0.68833 -0.434082,-0.27905 -1.023193,-0.27905 -0.948779,0 -1.506885,0.71313 -0.378271,0.4899 -0.378271,0.94258 0,0.5085 0.539502,0.99219 0.545703,0.47749 1.345654,0.47749 0.806152,0 1.345654,-0.47749 0.539502,-0.47749 0.539502,-1.00459 z"
         style="font-family:'Courier New';-inkscape-font-specification:'Courier New Bold';fill:#000000"
         id="path4759" />
      <path
         d="m 73.272074,105.38804 q 0,0.73174 -0.409277,1.42007 -0.403077,0.68213 -1.209229,1.09141 -0.799951,0.40307 -1.674316,0.40307 -0.868164,0 -1.661914,-0.39687 -0.79375,-0.40308 -1.209229,-1.09141 -0.415478,-0.68833 -0.415478,-1.43867 0,-0.76274 0.421679,-1.49448 0.42168,-0.73794 1.209229,-1.15962 0.79375,-0.42168 1.655713,-0.42168 0.868164,0 1.668115,0.43408 0.806152,0.42788 1.21543,1.15962 0.409277,0.72554 0.409277,1.49448 z m -1.27124,0.006 q 0,-0.61391 -0.440283,-1.12861 -0.601514,-0.69453 -1.581299,-0.69453 -0.861963,0 -1.438672,0.5519 -0.576709,0.55191 -0.576709,1.27744 0,0.59532 0.58291,1.11621 0.58291,0.5147 1.432471,0.5147 0.855761,0 1.438672,-0.5147 0.58291,-0.52089 0.58291,-1.12241 z"
         style="font-family:'Courier New';-inkscape-font-specification:'Courier New Bold';fill:#000000"
         id="path4761" />
      <path
         d="m 80.2918,102.46729 v 4.35942 q 0.403077,0 0.595313,0.17984 0.192236,0.17983 0.192236,0.45888 0,0.27906 -0.198437,0.45889 -0.192237,0.17363 -0.651123,0.17363 H 79.02056 v -0.29145 q -0.545703,0.24805 -1.041797,0.37207 -0.496093,0.12402 -0.942578,0.12402 -0.626318,0 -1.085205,-0.26045 -0.458887,-0.26665 -0.725537,-0.73174 -0.192236,-0.33486 -0.192236,-0.83715 v -2.73472 h -0.217041 q -0.458887,0 -0.657324,-0.17363 -0.192237,-0.17984 -0.192237,-0.46509 0,-0.27905 0.192237,-0.45269 0.198437,-0.17983 0.657324,-0.17983 h 1.488281 V 106.25 q 0,0.40308 0.192236,0.59532 0.198438,0.18603 0.601514,0.18603 0.384473,0 0.824756,-0.14883 0.446484,-0.15503 1.097607,-0.5519 v -2.59209 h -0.458887 q -0.458886,0 -0.657324,-0.17363 -0.192236,-0.17984 -0.192236,-0.46509 0,-0.27905 0.192236,-0.45269 0.198438,-0.17983 0.657324,-0.17983 z"
         style="font-family:'Courier New';-inkscape-font-specification:'Courier New Bold';fill:#000000"
         id="path4763" />
      <path
         d="m 84.94888,102.46729 v 0.79375 q 0.799951,-0.57671 1.258838,-0.76895 0.465088,-0.19223 0.868164,-0.19223 0.620117,0 1.203027,0.45888 0.396875,0.31006 0.396875,0.63252 0,0.27286 -0.192236,0.46509 -0.186035,0.18604 -0.452686,0.18604 -0.235644,0 -0.496093,-0.23565 -0.26045,-0.23564 -0.465088,-0.23564 -0.266651,0 -0.799951,0.33486 -0.5271,0.33486 -1.32085,1.00459 v 1.91616 h 1.810742 q 0.458887,0 0.651123,0.17984 0.198438,0.17363 0.198438,0.45888 0,0.27906 -0.198438,0.45889 -0.192236,0.17363 -0.651123,0.17363 h -3.838525 q -0.458887,0 -0.657324,-0.17363 -0.192237,-0.17983 -0.192237,-0.46509 0,-0.27905 0.192237,-0.45268 0.198437,-0.17984 0.657324,-0.17984 h 0.756543 v -3.08818 h -0.458887 q -0.458887,0 -0.657324,-0.17363 -0.192237,-0.17984 -0.192237,-0.46509 0,-0.27905 0.192237,-0.45269 0.198437,-0.17983 0.657324,-0.17983 z"
         style="font-family:'Courier New';-inkscape-font-specification:'Courier New Bold';fill:#000000"
         id="path4765" />
      <path
         d="m 103.37256,100.05503 v 6.77168 h 0.21704 q 0.45269,0 0.65113,0.17984 0.19843,0.17363 0.19843,0.45888 0,0.27906 -0.19843,0.45889 -0.19224,0.17363 -0.65113,0.17363 h -1.48828 v -0.31005 q -0.43408,0.25424 -0.91157,0.38447 -0.47129,0.13022 -0.97979,0.13022 -1.432466,0 -2.306831,-0.82475 -0.874365,-0.83096 -0.874365,-2.06499 0,-1.28985 0.917773,-2.20142 0.917773,-0.91157 2.238623,-0.91157 0.49609,0 0.97358,0.15503 0.47749,0.14883 0.94258,0.45268 v -1.5813 h -0.21704 q -0.45889,0 -0.65732,-0.17363 -0.19224,-0.17983 -0.19224,-0.45889 0,-0.28525 0.19224,-0.45888 0.19843,-0.17984 0.65732,-0.17984 z m -1.27124,5.39502 q 0,-0.78755 -0.5519,-1.33325 -0.55191,-0.5457 -1.35186,-0.5457 -0.793748,0 -1.345652,0.5457 -0.551904,0.5457 -0.551904,1.31465 0,0.70073 0.496094,1.15342 0.496093,0.44648 1.401462,0.44648 0.89917,0 1.40147,-0.44648 0.50229,-0.45269 0.50229,-1.13482 z"
         style="font-family:'Courier New';-inkscape-font-specification:'Courier New Bold';fill:#000000"
         id="path4767" />
      <path
         d="m 111.26665,105.92754 h -5.21518 q 0.19843,0.4961 0.70073,0.79995 0.5085,0.30386 1.37046,0.30386 0.70693,0 1.87895,-0.30386 0.48369,-0.12402 0.66973,-0.12402 0.25425,0 0.42788,0.17984 0.17363,0.17983 0.17363,0.45268 0,0.24805 -0.18603,0.42168 -0.24805,0.22944 -1.20923,0.44028 -0.96118,0.20464 -1.84795,0.20464 -1.52549,0 -2.44326,-0.86196 -0.91157,-0.86196 -0.91157,-2.1208 0,-1.33945 0.98598,-2.17661 0.99219,-0.84336 2.28203,-0.84336 0.77515,0 1.42007,0.27285 0.65113,0.27285 0.96739,0.58911 0.44648,0.45889 0.73794,1.13482 0.19843,0.47128 0.19843,1.0914 z m -1.40766,-1.27124 q -0.29146,-0.5457 -0.76275,-0.81235 -0.47129,-0.27285 -1.12241,-0.27285 -0.64492,0 -1.11621,0.27285 -0.47129,0.26665 -0.76895,0.81235 z"
         style="font-family:'Courier New';-inkscape-font-specification:'Courier New Bold';fill:#000000"
         id="path4769" />
      <path
         d="m 115.70669,106.55386 1.37046,-2.81533 q -0.50849,0 -0.65112,-0.0868 -0.31006,-0.19223 -0.31006,-0.5519 0,-0.27905 0.19224,-0.45269 0.19844,-0.17983 0.65732,-0.17983 h 1.74253 q 0.45889,0 0.65112,0.17983 0.19844,0.17364 0.19844,0.45889 0,0.27905 -0.19844,0.45889 -0.19223,0.17363 -0.65112,0.17363 h -0.21084 l -2.127,4.35942 h -1.32705 l -2.127,-4.35942 h -0.17984 q -0.45888,0 -0.65732,-0.17363 -0.19224,-0.17984 -0.19224,-0.46509 0,-0.27905 0.19224,-0.45269 0.19844,-0.17983 0.65732,-0.17983 h 1.70532 q 0.45269,0 0.64493,0.17983 0.19843,0.17364 0.19843,0.45889 0,0.35347 -0.29765,0.5395 -0.14883,0.093 -0.66353,0.093 z"
         style="font-family:'Courier New';-inkscape-font-specification:'Courier New Bold';fill:#000000"
         id="path4771" />
      <path
         d="m 126.50913,105.92754 h -5.21518 q 0.19844,0.4961 0.70073,0.79995 0.5085,0.30386 1.37046,0.30386 0.70693,0 1.87895,-0.30386 0.4837,-0.12402 0.66973,-0.12402 0.25425,0 0.42788,0.17984 0.17363,0.17983 0.17363,0.45268 0,0.24805 -0.18603,0.42168 -0.24805,0.22944 -1.20923,0.44028 -0.96118,0.20464 -1.84795,0.20464 -1.52549,0 -2.44326,-0.86196 -0.91157,-0.86196 -0.91157,-2.1208 0,-1.33945 0.98598,-2.17661 0.99219,-0.84336 2.28204,-0.84336 0.77514,0 1.42006,0.27285 0.65113,0.27285 0.96739,0.58911 0.44648,0.45889 0.73794,1.13482 0.19843,0.47128 0.19843,1.0914 z m -1.40766,-1.27124 q -0.29146,-0.5457 -0.76275,-0.81235 -0.47129,-0.27285 -1.12241,-0.27285 -0.64492,0 -1.11621,0.27285 -0.47129,0.26665 -0.76894,0.81235 z"
         style="font-family:'Courier New';-inkscape-font-specification:'Courier New Bold';fill:#000000"
         id="path4773" />
      <path
         d="m 131.57549,100.05503 v 6.77168 h 1.52549 q 0.45889,0 0.65112,0.17984 0.19844,0.17363 0.19844,0.45888 0,0.27906 -0.19844,0.45889 -0.19223,0.17363 -0.65112,0.17363 h -4.32221 q -0.45889,0 -0.65733,-0.17363 -0.19224,-0.17983 -0.19224,-0.46509 0,-0.27905 0.19224,-0.45268 0.19844,-0.17984 0.65733,-0.17984 h 1.52548 v -5.50044 h -1.02319 q -0.45269,0 -0.65112,-0.17363 -0.19844,-0.17983 -0.19844,-0.46509 0,-0.27905 0.19224,-0.45268 0.19843,-0.17984 0.65732,-0.17984 z"
         style="font-family:'Courier New';-inkscape-font-specification:'Courier New Bold';fill:#000000"
         id="path4775" />
      <path
         d="m 141.86324,105.38804 q 0,0.73174 -0.40928,1.42007 -0.40308,0.68213 -1.20923,1.09141 -0.79995,0.40307 -1.67432,0.40307 -0.86816,0 -1.66191,-0.39687 -0.79375,-0.40308 -1.20923,-1.09141 -0.41548,-0.68833 -0.41548,-1.43867 0,-0.76274 0.42168,-1.49448 0.42168,-0.73794 1.20923,-1.15962 0.79375,-0.42168 1.65571,-0.42168 0.86817,0 1.66812,0.43408 0.80615,0.42788 1.21543,1.15962 0.40928,0.72554 0.40928,1.49448 z m -1.27124,0.006 q 0,-0.61391 -0.44029,-1.12861 -0.60151,-0.69453 -1.5813,-0.69453 -0.86196,0 -1.43867,0.5519 -0.57671,0.55191 -0.57671,1.27744 0,0.59532 0.58291,1.11621 0.58291,0.5147 1.43247,0.5147 0.85577,0 1.43868,-0.5147 0.58291,-0.52089 0.58291,-1.12241 z"
         style="font-family:'Courier New';-inkscape-font-specification:'Courier New Bold';fill:#000000"
         id="path4777" />
      <path
         d="m 144.60415,107.39722 v 2.0836 h 0.76275 q 0.45888,0 0.65112,0.17363 0.19844,0.17983 0.19844,0.46509 0,0.27905 -0.19844,0.45268 -0.19224,0.17984 -0.65112,0.17984 h -2.25103 q -0.45889,0 -0.65732,-0.17984 -0.19224,-0.17363 -0.19224,-0.45268 0,-0.28526 0.19844,-0.46509 0.19844,-0.17363 0.65112,-0.17363 h 0.21704 v -5.74229 h -0.21704 q -0.45889,0 -0.65732,-0.17363 -0.19224,-0.17984 -0.19224,-0.46509 0,-0.27905 0.19224,-0.45269 0.19843,-0.17983 0.65732,-0.17983 h 1.48828 v 0.43408 q 0.44649,-0.30386 0.92398,-0.45268 0.47749,-0.14883 0.97978,-0.14883 1.30225,0 2.22002,0.88677 0.91778,0.88056 0.91778,2.02158 0,1.25884 -1.08521,2.07739 -0.90537,0.68213 -2.04019,0.68213 -0.48989,0 -0.96738,-0.14263 -0.47749,-0.14262 -0.94878,-0.42788 z m 3.77032,-2.18281 q 0,-0.26665 -0.21084,-0.67593 -0.21084,-0.41548 -0.65113,-0.68833 -0.43408,-0.27905 -1.02319,-0.27905 -0.94878,0 -1.50689,0.71313 -0.37827,0.4899 -0.37827,0.94258 0,0.5085 0.5395,0.99219 0.54571,0.47749 1.34566,0.47749 0.80615,0 1.34565,-0.47749 0.53951,-0.47749 0.53951,-1.00459 z"
         style="font-family:'Courier New';-inkscape-font-specification:'Courier New Bold';fill:#000000"
         id="path4779" />
      <path
         d="m 152.22539,107.39722 v 2.0836 h 0.76275 q 0.45888,0 0.65112,0.17363 0.19844,0.17983 0.19844,0.46509 0,0.27905 -0.19844,0.45268 -0.19224,0.17984 -0.65112,0.17984 h -2.25103 q -0.45889,0 -0.65732,-0.17984 -0.19224,-0.17363 -0.19224,-0.45268 0,-0.28526 0.19844,-0.46509 0.19843,-0.17363 0.65112,-0.17363 h 0.21704 v -5.74229 h -0.21704 q -0.45889,0 -0.65732,-0.17363 -0.19224,-0.17984 -0.19224,-0.46509 0,-0.27905 0.19224,-0.45269 0.19843,-0.17983 0.65732,-0.17983 h 1.48828 v 0.43408 q 0.44649,-0.30386 0.92398,-0.45268 0.47749,-0.14883 0.97978,-0.14883 1.30225,0 2.22002,0.88677 0.91777,0.88056 0.91777,2.02158 0,1.25884 -1.0852,2.07739 -0.90537,0.68213 -2.04019,0.68213 -0.48989,0 -0.96738,-0.14263 -0.47749,-0.14262 -0.94878,-0.42788 z m 3.77031,-2.18281 q 0,-0.26665 -0.21084,-0.67593 -0.21084,-0.41548 -0.65112,-0.68833 -0.43408,-0.27905 -1.02319,-0.27905 -0.94878,0 -1.50689,0.71313 -0.37827,0.4899 -0.37827,0.94258 0,0.5085 0.5395,0.99219 0.54571,0.47749 1.34566,0.47749 0.80615,0 1.34565,-0.47749 0.5395,-0.47749 0.5395,-1.00459 z"
         style="font-family:'Courier New';-inkscape-font-specification:'Courier New Bold';fill:#000000"
         id="path4781" />
      <path
         d="m 164.61533,105.92754 h -5.21518 q 0.19843,0.4961 0.70073,0.79995 0.50849,0.30386 1.37046,0.30386 0.70693,0 1.87895,-0.30386 0.48369,-0.12402 0.66973,-0.12402 0.25425,0 0.42788,0.17984 0.17363,0.17983 0.17363,0.45268 0,0.24805 -0.18603,0.42168 -0.24805,0.22944 -1.20923,0.44028 -0.96118,0.20464 -1.84795,0.20464 -1.52549,0 -2.44326,-0.86196 -0.91157,-0.86196 -0.91157,-2.1208 0,-1.33945 0.98598,-2.17661 0.99219,-0.84336 2.28203,-0.84336 0.77515,0 1.42007,0.27285 0.65112,0.27285 0.96738,0.58911 0.44649,0.45889 0.73794,1.13482 0.19844,0.47128 0.19844,1.0914 z m -1.40766,-1.27124 q -0.29146,-0.5457 -0.76275,-0.81235 -0.47129,-0.27285 -1.12241,-0.27285 -0.64492,0 -1.11621,0.27285 -0.47129,0.26665 -0.76895,0.81235 z"
         style="font-family:'Courier New';-inkscape-font-specification:'Courier New Bold';fill:#000000"
         id="path4783" />
      <path
         d="m 171.74668,102.46729 v 4.35942 q 0.40308,0 0.59532,0.17984 0.19223,0.17983 0.19223,0.45888 0,0.27906 -0.19843,0.45889 -0.19224,0.17363 -0.65113,0.17363 h -1.20923 v -0.29145 q -0.5457,0.24805 -1.04179,0.37207 -0.4961,0.12402 -0.94258,0.12402 -0.62632,0 -1.08521,-0.26045 -0.45888,-0.26665 -0.72553,-0.73174 -0.19224,-0.33486 -0.19224,-0.83715 v -2.73472 h -0.21704 q -0.45889,0 -0.65732,-0.17363 -0.19224,-0.17984 -0.19224,-0.46509 0,-0.27905 0.19224,-0.45269 0.19843,-0.17983 0.65732,-0.17983 h 1.48828 V 106.25 q 0,0.40308 0.19224,0.59532 0.19844,0.18603 0.60151,0.18603 0.38447,0 0.82476,-0.14883 0.44648,-0.15503 1.0976,-0.5519 v -2.59209 h -0.45888 q -0.45889,0 -0.65733,-0.17363 -0.19223,-0.17984 -0.19223,-0.46509 0,-0.27905 0.19223,-0.45269 0.19844,-0.17983 0.65733,-0.17983 z"
         style="font-family:'Courier New';-inkscape-font-specification:'Courier New Bold';fill:#000000"
         id="path4785" />
      <path
         d="m 176.40376,102.46729 v 0.79375 q 0.79995,-0.57671 1.25884,-0.76895 0.46509,-0.19223 0.86817,-0.19223 0.62011,0 1.20302,0.45888 0.39688,0.31006 0.39688,0.63252 0,0.27286 -0.19224,0.46509 -0.18603,0.18604 -0.45268,0.18604 -0.23565,0 -0.4961,-0.23565 -0.26045,-0.23564 -0.46509,-0.23564 -0.26665,0 -0.79995,0.33486 -0.5271,0.33486 -1.32085,1.00459 v 1.91616 h 1.81075 q 0.45888,0 0.65112,0.17984 0.19844,0.17363 0.19844,0.45888 0,0.27906 -0.19844,0.45889 -0.19224,0.17363 -0.65112,0.17363 h -3.83853 q -0.45889,0 -0.65732,-0.17363 -0.19224,-0.17983 -0.19224,-0.46509 0,-0.27905 0.19224,-0.45268 0.19843,-0.17984 0.65732,-0.17984 h 0.75654 v -3.08818 h -0.45888 q -0.45889,0 -0.65733,-0.17363 -0.19223,-0.17984 -0.19223,-0.46509 0,-0.27905 0.19223,-0.45269 0.19844,-0.17983 0.65733,-0.17983 z"
         style="font-family:'Courier New';-inkscape-font-specification:'Courier New Bold';fill:#000000"
         id="path4787" />
    </g>
  </g>
</svg>
