<svg version="1.0" xmlns="http://www.w3.org/2000/svg" width="1024.000000pt" height="1024.000000pt"
    viewBox="0 0 1024.000000 1024.000000" preserveAspectRatio="xMidYMid meet">

    <g transform="translate(0.000000,1024.000000) scale(0.100000,-0.100000)" fill="green" stroke="none">
        <path d="M2420 10234 c0 -14 94 -240 106 -254 7 -8 33 -58 58 -110 24 -52 68
-124 95 -158 28 -35 51 -68 51 -73 0 -6 24 -36 53 -67 29 -31 73 -84 97 -117
l45 -60 2 -109 c1 -59 -3 -122 -9 -140 -19 -57 -82 -142 -126 -169 -46 -29
-149 -60 -197 -59 -46 0 -152 37 -190 67 -45 34 -44 24 4 -39 84 -108 198
-159 343 -151 74 3 186 41 240 80 44 32 139 90 161 98 9 3 17 2 17 -3 0 -5 -9
-11 -20 -15 -11 -3 -50 -34 -88 -69 -47 -43 -98 -76 -167 -110 -55 -27 -112
-59 -126 -71 -14 -12 -64 -36 -110 -54 -46 -19 -91 -40 -100 -47 -8 -8 -18
-14 -22 -14 -4 0 -30 -11 -59 -24 -130 -59 -205 -69 -291 -40 -26 9 -57 28
-68 42 l-22 27 5 -52 c3 -32 14 -66 28 -86 25 -36 80 -76 114 -83 139 -27 200
-31 210 -15 3 5 23 12 43 16 21 4 52 13 68 20 35 15 98 39 105 41 3 0 18 6 33
12 16 7 34 12 42 12 8 0 16 4 19 9 8 13 46 21 46 10 0 -5 -10 -14 -22 -20 -13
-5 -50 -30 -83 -54 -33 -25 -71 -50 -85 -57 -14 -7 -62 -46 -107 -88 -45 -41
-108 -88 -140 -105 -32 -16 -78 -44 -102 -62 -24 -18 -49 -33 -56 -33 -7 0
-18 -6 -24 -14 -9 -11 2 -15 64 -25 195 -29 357 4 477 96 68 52 81 55 33 8
-19 -20 -35 -41 -35 -47 0 -6 -22 -34 -49 -62 -66 -68 -95 -111 -120 -184 -30
-84 -32 -94 -37 -207 l-5 -100 34 96 c34 97 55 134 112 193 17 17 44 49 60 71
34 46 51 66 84 103 14 15 37 47 53 71 21 34 28 40 28 24 0 -12 -4 -24 -8 -27
-4 -2 -9 -60 -11 -128 -2 -68 -4 -151 -6 -185 -1 -35 2 -63 7 -63 4 0 8 10 8
23 0 12 9 54 21 92 11 39 21 79 22 90 1 11 4 22 8 25 7 7 113 282 130 339 7
24 30 64 51 90 21 25 38 49 38 54 0 5 7 15 15 23 30 30 16 -14 -20 -66 -36
-51 -55 -96 -80 -185 -8 -27 -32 -99 -54 -160 -21 -60 -42 -129 -46 -152 -4
-24 -11 -45 -16 -49 -5 -3 -9 -18 -9 -33 0 -15 -7 -42 -16 -60 -9 -17 -17 -37
-18 -44 -2 -7 -6 -19 -9 -27 -7 -16 -15 -56 -16 -81 -1 -24 -42 -37 -154 -49
-55 -7 -117 -18 -138 -25 -22 -8 -43 -14 -47 -15 -37 -2 -247 -97 -305 -137
-67 -47 -76 -55 -203 -181 -63 -63 -124 -132 -135 -154 -11 -22 -40 -68 -63
-103 -24 -34 -63 -103 -86 -151 -106 -222 -130 -275 -130 -290 0 -9 -6 -28
-14 -42 -30 -55 -67 -143 -72 -172 -4 -16 -13 -35 -20 -41 -8 -6 -14 -18 -14
-27 0 -8 -15 -47 -34 -86 -19 -39 -37 -85 -41 -101 -3 -17 -17 -52 -30 -80
-13 -27 -30 -66 -38 -85 -8 -19 -29 -67 -46 -106 -17 -39 -31 -79 -31 -90 0
-11 -4 -24 -9 -29 -5 -6 -24 -55 -41 -110 -18 -55 -35 -104 -38 -110 -4 -5 -7
-15 -8 -21 -1 -6 -18 -74 -37 -150 -19 -76 -38 -160 -41 -185 -11 -76 -16
-102 -31 -154 -15 -54 -32 -184 -40 -310 -11 -167 -27 -307 -38 -335 -3 -8
-15 -62 -26 -120 -24 -122 -30 -149 -37 -172 -3 -9 -7 -25 -9 -35 -16 -71 -46
-176 -54 -191 -5 -9 -11 -30 -14 -47 -12 -65 -18 -89 -27 -105 -5 -9 -11 -30
-14 -46 -14 -77 -18 -92 -31 -139 -17 -61 -33 -133 -45 -200 -11 -63 -17 -90
-28 -129 -5 -17 -10 -44 -11 -59 0 -16 -7 -54 -15 -85 -18 -71 -66 -419 -73
-527 -2 -44 -10 -91 -16 -104 -9 -18 -12 -230 -12 -830 0 -811 5 -1013 24
-1050 6 -11 11 -35 11 -55 0 -43 31 -170 62 -256 l24 -65 87 -3 c93 -3 99 1
71 43 -9 14 -13 25 -9 25 4 0 2 7 -5 15 -7 8 -9 15 -5 15 4 0 3 6 -3 12 -10
13 -55 191 -54 218 0 8 -8 40 -17 70 -14 49 -16 147 -16 930 1 481 4 902 8
935 4 33 12 94 17 135 6 41 12 95 15 120 3 25 7 54 9 65 2 11 7 49 11 85 3 36
11 80 17 98 5 18 11 49 13 70 4 40 30 191 40 232 3 14 10 48 15 75 4 28 15 76
23 108 8 31 13 57 10 57 -2 0 2 10 9 23 6 12 13 31 15 42 12 88 23 136 37 163
9 18 16 33 15 34 -3 8 30 135 40 153 3 6 7 17 8 25 3 22 20 95 38 170 9 36 20
85 26 110 6 25 13 63 16 85 3 22 9 44 14 50 5 5 9 28 9 51 0 24 4 45 8 48 5 3
12 45 16 93 19 253 48 471 91 668 19 94 37 175 39 180 2 6 5 17 8 25 3 8 11
35 17 60 13 51 16 59 24 80 17 41 39 109 47 140 9 40 16 63 35 105 46 102 65
147 86 205 13 36 35 88 50 115 14 28 30 66 34 85 4 19 16 51 26 70 37 68 87
185 99 230 11 43 28 81 110 255 21 44 42 91 46 105 4 13 15 36 24 50 10 14 35
52 56 85 21 33 50 76 65 95 16 19 34 46 41 60 16 30 203 210 219 210 6 0 30
13 53 28 52 35 140 77 197 93 24 7 49 16 54 20 6 3 42 15 80 25 89 23 421 27
530 6 120 -24 231 -72 292 -126 21 -20 52 -46 69 -60 51 -41 231 -271 268
-341 19 -36 40 -73 47 -82 18 -20 35 -68 66 -178 23 -82 26 -114 33 -370 8
-295 9 -302 70 -520 17 -60 33 -117 35 -125 2 -8 12 -44 23 -80 23 -76 50
-183 57 -224 2 -15 7 -37 11 -48 3 -11 8 -32 9 -47 2 -14 9 -62 15 -106 13
-88 8 -294 -10 -385 -6 -30 -13 -71 -16 -90 -3 -19 -12 -53 -20 -75 -8 -22
-17 -51 -20 -65 -2 -14 -7 -36 -11 -50 -3 -14 -7 -27 -8 -30 0 -3 -6 -14 -12
-25 -5 -11 -18 -45 -28 -75 -32 -103 -185 -433 -206 -446 -5 -3 -9 -13 -9 -24
0 -10 -16 -42 -36 -71 -20 -30 -44 -70 -54 -89 -10 -19 -29 -47 -43 -62 -13
-14 -34 -46 -46 -71 -12 -25 -49 -75 -81 -112 -33 -38 -60 -74 -60 -81 0 -8
-31 -47 -68 -88 -37 -41 -74 -87 -82 -103 -8 -15 -33 -48 -55 -73 -22 -25 -49
-59 -61 -75 l-20 -29 -33 57 c-18 31 -38 60 -46 64 -30 17 -120 152 -176 264
-17 34 -17 42 -5 90 8 30 19 90 26 134 12 92 15 105 23 125 7 15 26 140 30
195 1 17 5 35 9 40 3 6 9 48 13 95 4 47 9 92 12 100 7 20 10 54 16 185 3 61 3
94 0 75 -2 -19 -11 -60 -20 -90 -8 -30 -21 -82 -29 -115 -9 -33 -18 -67 -21
-75 -4 -8 -8 -25 -9 -37 -2 -12 -8 -32 -15 -44 -13 -24 -28 -76 -60 -199 -11
-41 -21 -82 -24 -90 -25 -81 -65 -226 -65 -236 0 -7 -5 -25 -12 -41 -6 -15
-12 -32 -14 -38 -1 -5 -16 -47 -33 -93 -17 -45 -31 -84 -31 -87 1 -10 -23 -91
-41 -140 -10 -27 -30 -95 -44 -150 -15 -55 -31 -108 -36 -117 -5 -10 -9 -24
-9 -32 0 -7 -9 -42 -20 -76 -11 -35 -22 -73 -25 -84 -2 -12 -7 -32 -10 -46 -3
-14 -8 -36 -11 -49 -3 -13 -9 -31 -13 -40 -5 -9 -9 -19 -10 -24 0 -4 -3 -24
-8 -45 -9 -48 -10 -51 -13 -57 -3 -6 -4 -9 -14 -55 -4 -19 -17 -64 -28 -100
-33 -102 -69 -214 -76 -230 -3 -8 -6 -17 -7 -20 -1 -3 -9 -21 -17 -40 -9 -19
-23 -60 -32 -90 -29 -99 -228 -479 -282 -540 -13 -14 -30 -43 -39 -65 -9 -22
-23 -53 -30 -70 -21 -48 -35 -176 -35 -318 1 -137 11 -194 47 -262 23 -42 201
-216 258 -250 18 -12 62 -50 98 -85 35 -36 77 -76 93 -90 16 -14 50 -49 77
-78 l47 -52 105 0 105 0 -59 73 c-77 93 -136 154 -241 247 -46 41 -96 86 -111
100 -15 14 -59 52 -99 84 -108 90 -110 96 -110 356 0 119 3 220 7 224 4 3 8
12 9 19 6 32 36 102 61 140 15 23 33 51 40 62 19 32 138 273 178 360 61 133
63 138 76 195 6 30 16 62 20 70 17 34 48 128 58 176 6 28 19 73 29 100 18 44
33 106 48 190 3 16 20 81 38 144 19 63 37 131 41 150 3 19 17 71 29 115 13 44
31 116 40 160 26 124 38 165 47 165 4 0 26 -26 48 -57 30 -43 41 -68 41 -95 0
-20 4 -40 10 -43 5 -3 19 -38 30 -78 34 -118 71 -229 90 -272 17 -37 49 -137
51 -160 1 -5 6 -19 12 -30 6 -11 11 -23 12 -27 0 -3 3 -10 8 -14 4 -4 7 -14 7
-21 0 -8 9 -33 19 -56 26 -57 61 -157 54 -157 -2 0 4 -15 15 -32 11 -18 31
-73 45 -123 13 -49 37 -119 51 -155 15 -36 31 -85 37 -110 6 -24 23 -72 39
-105 16 -33 32 -73 35 -90 4 -16 16 -50 27 -75 22 -49 36 -91 44 -130 3 -14 9
-38 14 -55 15 -49 47 -291 55 -415 3 -41 7 -88 10 -105 6 -37 12 -123 20 -275
3 -63 8 -133 12 -155 4 -22 7 -44 8 -50 1 -5 3 -63 3 -127 l2 -118 146 0 c134
0 145 1 140 18 -3 9 -10 118 -16 242 -18 391 -31 602 -40 625 -5 13 -6 25 -4
28 8 7 -15 210 -29 252 -3 11 -8 36 -12 55 -26 164 -97 440 -126 492 -5 10 -9
23 -9 28 0 10 -21 59 -70 165 -10 22 -22 52 -25 68 -4 15 -11 30 -16 33 -5 3
-9 14 -9 24 0 11 -9 34 -20 52 -11 18 -20 39 -20 46 0 7 -15 45 -33 85 -19 40
-45 106 -59 147 -14 41 -40 113 -58 160 -32 88 -35 95 -45 145 -6 27 0 37 52
92 107 113 217 242 225 263 4 11 11 20 15 20 4 0 33 32 63 71 30 40 60 77 65
83 6 6 34 47 64 91 30 44 67 96 83 115 15 19 28 40 28 46 0 6 19 41 43 77 23
36 54 87 69 114 16 26 32 55 36 63 5 8 16 31 24 50 8 19 24 55 36 80 69 151
76 168 152 375 13 33 26 65 30 70 4 6 17 42 29 80 43 143 58 169 104 189 23
10 67 25 97 33 30 7 64 18 75 22 11 5 61 21 110 35 50 15 104 31 120 37 62 22
63 22 78 -8 9 -16 36 -39 61 -52 25 -13 55 -34 67 -47 12 -13 26 -24 31 -24 4
0 31 -16 58 -35 27 -19 52 -35 56 -35 3 0 20 -11 38 -25 18 -14 36 -25 40 -25
9 0 86 -49 111 -71 11 -10 45 -30 75 -45 30 -15 80 -46 110 -69 30 -24 69 -50
85 -59 51 -28 205 -124 337 -211 34 -22 75 -48 92 -59 17 -10 49 -31 72 -47
22 -15 65 -39 95 -52 30 -13 68 -36 86 -51 17 -15 89 -56 160 -92 70 -36 133
-70 139 -75 39 -32 328 -162 388 -174 10 -3 24 -9 31 -15 7 -6 21 -12 31 -14
11 -3 48 -11 84 -20 257 -61 281 -64 568 -78 247 -12 529 -1 556 21 6 5 34 14
61 20 168 34 248 66 319 127 22 19 44 34 50 34 6 0 39 26 73 58 59 54 93 108
138 217 l16 40 39 -71 c24 -43 47 -106 60 -160 11 -49 24 -101 29 -116 5 -14
9 -98 9 -185 1 -127 -3 -175 -19 -233 -10 -41 -19 -79 -19 -86 0 -7 -5 -25
-12 -41 -6 -15 -12 -30 -13 -33 -1 -3 -6 -20 -10 -38 -4 -18 -12 -35 -16 -38
-5 -3 -9 -12 -9 -21 0 -9 -6 -24 -14 -32 -7 -9 -28 -45 -47 -81 -58 -112 -109
-175 -236 -291 -50 -45 -111 -89 -151 -108 -37 -18 -75 -37 -84 -42 -10 -5
-26 -9 -36 -9 -11 0 -34 -8 -53 -17 -19 -10 -65 -19 -106 -21 -79 -5 -141 11
-232 59 -30 16 -62 29 -71 29 -10 0 -42 16 -71 36 -30 20 -101 63 -158 96 -58
32 -118 68 -133 80 -16 11 -31 18 -34 16 -5 -6 62 -60 101 -81 17 -9 43 -30
59 -46 26 -28 70 -59 181 -130 22 -14 65 -45 95 -67 30 -23 83 -56 118 -74 34
-17 65 -36 68 -41 2 -5 37 -33 77 -63 40 -30 82 -67 94 -84 32 -43 67 -121 82
-178 7 -27 16 -65 21 -84 5 -19 17 -93 26 -165 9 -71 20 -134 24 -140 4 -5 10
-66 14 -135 3 -69 9 -163 12 -209 5 -84 -10 -322 -26 -396 -22 -106 -40 -174
-55 -215 -9 -25 -18 -53 -20 -64 -3 -10 -8 -23 -13 -30 -6 -6 -13 -27 -17 -46
-4 -19 -13 -42 -20 -50 -7 -8 -18 -34 -24 -57 -6 -23 -17 -48 -24 -55 -7 -7
-26 -30 -41 -51 l-29 -38 153 3 153 3 33 65 c19 35 34 72 34 83 0 10 9 36 19
58 11 22 25 66 32 97 7 31 13 59 14 62 39 146 47 212 75 563 12 157 12 403 0
602 -5 83 -12 245 -16 360 l-7 210 29 31 c159 170 231 261 289 364 92 164 131
248 164 360 13 41 27 84 32 95 16 39 32 182 31 294 -1 161 -33 345 -77 446
-12 28 -25 66 -29 86 -4 21 -13 42 -21 49 -8 7 -15 18 -15 24 0 6 -37 83 -81
171 -45 88 -92 181 -105 207 -13 27 -28 48 -32 48 -5 0 -26 33 -46 73 -21 39
-55 90 -75 112 -20 22 -55 63 -77 90 -49 63 -78 97 -131 156 -24 25 -43 49
-43 52 0 3 11 18 24 32 14 15 28 41 32 58 3 18 14 48 24 67 9 19 23 60 29 90
14 64 22 96 50 200 25 94 39 323 21 345 -6 8 -9 19 -5 24 3 6 -3 27 -13 48
-11 21 -27 60 -36 86 -17 51 -99 179 -135 211 -11 11 -21 25 -21 31 0 7 -39
48 -87 91 -47 44 -94 86 -103 94 -36 34 -109 90 -116 90 -4 0 -41 22 -83 49
-96 61 -183 99 -246 107 -16 2 -84 3 -150 2 -161 -2 -317 2 -327 8 -21 14 10
24 70 24 130 1 322 38 382 75 19 12 55 29 80 39 25 10 73 39 108 64 35 26 81
60 103 75 21 16 44 38 50 50 7 12 26 40 43 61 36 47 96 145 96 158 0 5 9 27
20 50 11 22 17 44 15 49 -3 4 -2 10 2 12 5 3 7 27 7 54 -1 26 -2 86 -3 133 -2
58 -5 79 -11 65 -5 -11 -9 -37 -9 -58 -1 -20 -5 -45 -10 -55 -5 -9 -14 -41
-21 -69 -12 -54 -70 -177 -108 -231 -12 -16 -22 -33 -22 -37 0 -12 -42 -66
-47 -61 -3 2 7 24 20 48 14 24 31 63 37 88 11 42 31 93 50 130 4 9 11 31 15
50 4 19 11 40 15 45 32 43 40 257 14 358 -23 88 -46 127 -101 172 -27 22 -58
50 -68 63 -17 24 -17 24 4 13 11 -7 21 -9 21 -6 0 4 17 -7 38 -23 20 -16 65
-43 98 -60 51 -26 75 -48 139 -127 63 -78 82 -111 107 -181 30 -86 39 -183 23
-234 -10 -32 10 -17 31 23 56 107 64 128 74 210 12 90 4 178 -23 252 -17 45
-128 205 -142 205 -7 0 -54 35 -103 78 -78 67 -87 77 -66 80 12 2 32 -2 44 -8
11 -6 64 -14 118 -17 104 -6 124 -1 222 58 78 47 113 104 49 81 -13 -5 -37 -7
-54 -5 -64 8 -71 10 -81 15 -5 3 -22 8 -39 12 -41 10 -191 111 -217 146 -11
16 -33 34 -47 40 -39 18 -227 242 -217 259 3 5 25 2 48 -6 27 -10 97 -17 191
-20 169 -6 240 5 327 49 30 15 63 28 72 28 9 0 20 5 23 11 5 7 -5 8 -32 3 -21
-3 -40 -6 -43 -6 -41 0 -60 4 -60 12 0 6 11 10 25 10 14 0 25 4 25 10 0 11
-96 6 -155 -9 -49 -13 -197 -14 -175 -2 8 5 44 11 80 15 100 10 120 14 133 24
7 5 23 12 37 16 14 3 45 25 70 47 51 47 52 47 -53 -4 -92 -45 -135 -47 -70 -3
55 37 85 78 111 151 41 115 40 194 -2 131 -8 -14 -26 -28 -38 -32 -12 -4 -34
-15 -48 -25 -14 -10 -34 -20 -45 -22 -11 -1 -25 -6 -31 -9 -9 -6 -41 -14 -124
-33 -8 -2 -37 -8 -64 -15 -64 -14 -328 -15 -355 -1 -11 6 -34 11 -52 11 -31 0
-94 14 -134 30 -48 19 -61 24 -80 26 -25 3 -138 53 -145 64 -3 4 -54 31 -113
60 -59 29 -110 56 -113 61 -6 11 38 8 54 -4 6 -5 12 -6 12 -2 0 4 6 3 13 -3 6
-5 35 -14 62 -18 56 -9 55 -9 75 -17 8 -3 58 -13 110 -23 52 -9 100 -21 106
-26 7 -5 16 -8 20 -7 5 1 11 0 14 -1 42 -16 219 -22 280 -9 25 5 47 9 50 8 3
-1 31 13 63 30 31 17 64 31 72 31 8 0 56 41 105 92 122 124 188 241 105 185
-11 -7 -36 -20 -55 -27 -19 -8 -49 -24 -67 -36 -32 -22 -231 -89 -239 -81 -2
2 4 15 15 28 34 44 47 93 50 185 2 75 -2 105 -24 175 -38 118 -65 161 -221
350 -58 71 -95 122 -140 195 -48 80 -57 84 -167 84 -78 0 -97 -3 -90 -12 6 -7
13 -32 17 -54 3 -23 13 -54 21 -70 8 -16 15 -37 15 -47 0 -10 7 -32 16 -50 32
-64 -80 60 -130 143 -25 43 -53 81 -62 84 -9 3 -74 6 -145 6 -97 0 -129 -3
-129 -12 0 -7 7 -38 15 -68 22 -80 20 -94 -7 -79 -12 7 -45 33 -73 59 -105 99
-107 100 -284 100 l-156 0 35 -24 c19 -13 58 -50 87 -83 29 -33 67 -67 85 -76
33 -16 79 -55 95 -79 9 -14 15 -18 118 -78 71 -41 169 -120 149 -120 -6 0 -50
24 -97 54 -81 51 -130 75 -133 65 -1 -2 -10 3 -20 12 -11 10 -42 30 -70 47
-61 36 -70 43 -182 150 -116 111 -146 125 -292 129 -89 2 -109 0 -90 -8 71
-31 132 -68 194 -121 39 -32 75 -58 81 -58 6 0 18 -12 27 -27 27 -44 105 -117
203 -190 50 -37 92 -70 95 -73 3 -3 28 -19 55 -34 28 -16 72 -45 100 -65 27
-20 58 -41 70 -47 58 -31 107 -61 195 -120 54 -35 104 -64 112 -64 8 0 34 -13
59 -28 24 -16 69 -41 99 -56 30 -15 66 -38 80 -51 14 -12 52 -36 85 -53 33
-16 69 -39 79 -51 19 -21 19 -21 -5 -21 -41 1 -112 20 -169 47 -30 14 -62 29
-70 33 -18 8 -216 70 -223 69 -1 0 -35 16 -75 36 -40 19 -75 35 -79 35 -4 0
-14 6 -22 13 -9 7 -43 24 -76 37 -33 13 -81 40 -107 59 -60 46 -133 91 -146
91 -6 0 -15 6 -19 13 -4 8 -27 28 -51 45 -24 17 -52 42 -63 56 -11 14 -32 31
-47 38 -24 12 -76 70 -175 197 -23 29 -47 63 -54 75 -7 11 -58 65 -114 118
-70 67 -112 100 -133 103 -17 4 -74 5 -126 3 l-95 -3 34 -20 c18 -11 50 -33
71 -50 21 -16 67 -52 104 -78 54 -39 68 -55 77 -90 7 -23 18 -49 25 -57 7 -8
17 -27 23 -42 10 -27 10 -27 -27 -23 -20 2 -37 4 -37 5 0 1 -34 4 -75 6 -61 4
-78 9 -93 27 -18 22 -18 21 -12 -28 12 -88 7 -168 -13 -240 -24 -83 -56 -175
-71 -201 -13 -24 -61 -148 -61 -159 0 -4 -9 -26 -19 -49 -11 -23 -31 -81 -46
-131 -15 -49 -33 -104 -42 -122 -8 -17 -12 -36 -9 -42 4 -6 4 -17 0 -23 -10
-17 -12 -35 -15 -148 -1 -72 2 -103 14 -125 25 -47 136 -159 198 -202 66 -44
148 -142 180 -213 16 -36 40 -145 46 -215 7 -75 8 -265 2 -810 -3 -384 -2
-437 14 -500 9 -38 21 -79 26 -90 5 -11 17 -45 27 -75 22 -71 40 -106 78 -152
36 -44 80 -55 53 -14 -9 13 -20 45 -26 72 -8 43 -33 149 -63 269 -27 111 -39
355 -43 848 -3 421 -6 523 -20 600 -19 105 -19 104 -74 212 -138 271 -181 392
-181 510 1 67 30 267 55 365 9 36 20 83 25 105 5 22 16 67 25 100 9 33 18 69
20 80 2 11 6 30 9 43 3 12 10 66 16 120 6 53 15 101 20 106 16 16 118 20 135
6 13 -11 13 -16 2 -29 -16 -20 -32 -56 -46 -101 -41 -136 -32 -537 16 -740 8
-36 17 -81 18 -100 2 -19 6 -44 8 -55 3 -11 8 -49 12 -85 3 -36 11 -82 16
-103 9 -35 10 -257 5 -812 -1 -121 2 -254 7 -295 15 -121 45 -291 62 -350 8
-30 17 -67 20 -81 3 -14 12 -45 20 -69 8 -23 15 -50 15 -59 0 -19 50 -142 66
-162 6 -8 26 -41 44 -74 30 -55 171 -205 192 -205 5 0 35 -17 66 -38 36 -24
79 -43 117 -51 33 -7 78 -17 100 -22 22 -5 121 -13 221 -19 121 -6 193 -15
218 -25 21 -9 81 -20 134 -25 106 -10 155 -20 191 -39 12 -7 48 -21 78 -32 30
-10 70 -31 88 -46 18 -16 56 -44 85 -63 85 -57 268 -223 299 -271 15 -24 42
-61 58 -81 41 -51 102 -196 114 -271 11 -66 3 -214 -12 -233 -6 -7 -14 -38
-20 -70 -6 -33 -12 -71 -15 -87 -7 -35 -61 -193 -78 -226 -13 -24 -14 -23 -35
35 -12 32 -25 72 -28 89 -3 16 -12 40 -20 53 -14 23 -90 237 -99 279 -2 12
-18 56 -34 97 -17 41 -30 82 -30 91 0 8 -9 34 -21 56 -23 46 -108 181 -118
189 -4 3 -18 21 -31 40 -30 44 -247 260 -262 260 -11 0 -1 -15 41 -61 33 -37
105 -152 142 -229 79 -163 105 -224 113 -270 1 -3 7 -18 13 -35 11 -28 29
-111 39 -180 4 -27 3 -28 -11 -14 -15 15 -34 46 -72 119 -19 38 -86 141 -132
205 -15 22 -33 54 -39 71 -10 30 -32 68 -89 149 -16 22 -39 67 -51 99 -32 85
-116 192 -178 228 -16 9 -30 26 -32 38 -3 18 0 20 25 14 15 -4 71 -28 123 -54
99 -49 168 -75 176 -67 8 8 -61 57 -79 57 -9 0 -19 5 -22 10 -6 10 -88 64
-157 104 -43 26 -114 45 -158 44 l-35 -1 35 -7 c42 -9 25 -12 -47 -10 -32 1
-53 -3 -53 -9 0 -7 -27 -12 -67 -12 l-68 -2 85 -7 c47 -4 103 -12 125 -18 22
-7 51 -13 64 -14 14 -2 25 -10 27 -21 3 -19 -2 -19 -96 9 -58 16 -263 25 -335
13 -22 -3 -32 -7 -23 -8 20 -1 38 -30 38 -63 0 -23 0 -23 23 5 22 27 23 28
107 22 121 -7 260 -55 260 -90 0 -24 113 -264 142 -300 32 -40 110 -160 118
-180 4 -11 34 -56 66 -100 33 -44 69 -100 80 -125 12 -25 42 -72 66 -105 25
-33 58 -82 72 -110 15 -27 38 -67 50 -89 13 -21 34 -77 47 -125 36 -137 57
-170 187 -288 116 -104 266 -260 345 -358 25 -30 55 -93 63 -129 2 -10 9 -35
15 -54 6 -19 9 -64 7 -101 -7 -86 -58 -191 -120 -245 -23 -20 -52 -45 -63 -55
-24 -22 -102 -63 -129 -68 -11 -2 -24 -7 -30 -12 -6 -4 -36 -16 -66 -26 -30
-10 -65 -21 -78 -26 -74 -28 -621 -19 -782 13 -66 14 -73 15 -127 23 -69 10
-101 32 -124 83 -12 26 -32 70 -44 97 -13 28 -34 74 -45 104 -12 30 -30 67
-41 82 -10 15 -19 31 -19 36 -1 4 -21 33 -45 63 -25 30 -52 70 -60 88 -9 18
-41 58 -73 90 -32 31 -71 75 -87 97 -33 45 -75 84 -90 85 -6 0 -33 23 -60 51
-28 28 -77 66 -110 86 -33 19 -73 45 -90 57 -16 13 -43 30 -60 39 -16 8 -43
26 -59 40 -16 14 -54 33 -85 42 -31 10 -60 20 -66 24 -5 3 -12 6 -15 6 -3 1
-21 8 -40 17 -68 30 -115 49 -140 54 -131 28 -203 35 -342 32 -162 -3 -199
-16 -106 -37 29 -6 71 -15 93 -20 22 -5 72 -19 110 -30 39 -12 77 -23 86 -25
72 -18 128 -41 209 -87 52 -29 135 -73 185 -97 49 -24 106 -59 126 -77 20 -18
52 -40 71 -49 40 -19 208 -158 293 -243 114 -113 227 -251 260 -318 11 -22 30
-57 43 -77 12 -21 20 -38 18 -38 -3 0 4 -21 15 -46 12 -25 19 -47 17 -49 -3
-4 -63 25 -163 78 -27 15 -57 27 -66 27 -9 0 -27 8 -40 18 -13 9 -40 26 -59
36 -19 11 -44 24 -55 30 -10 6 -36 23 -58 38 -21 15 -55 32 -75 39 -20 7 -50
22 -67 34 -16 13 -48 32 -70 43 -22 11 -49 29 -59 41 -10 11 -56 39 -101 61
-46 23 -85 47 -88 54 -3 7 -29 25 -59 41 -29 15 -104 62 -167 104 -62 42 -137
90 -166 106 -29 17 -85 50 -125 75 -67 43 -187 112 -220 127 -8 4 -35 21 -60
39 -25 18 -75 46 -111 63 -59 27 -70 37 -94 83 -15 29 -38 68 -52 86 -13 18
-36 58 -50 90 -14 31 -31 64 -38 72 -11 13 -47 77 -102 182 -8 15 -18 30 -24
33 -5 4 -9 14 -9 24 0 10 -18 54 -40 99 -22 44 -40 84 -40 89 0 5 -11 24 -24
43 -13 19 -27 46 -31 60 -13 44 -84 200 -160 355 -40 83 -96 198 -125 257 -28
59 -62 124 -76 144 -14 20 -43 71 -65 113 -22 42 -55 96 -75 121 -19 25 -41
59 -49 76 -19 42 -62 92 -170 199 -114 113 -197 217 -183 230 2 2 48 -18 103
-44 166 -79 388 -159 497 -180 29 -5 65 -14 81 -20 15 -6 27 -8 27 -5 0 4 7 1
15 -6 8 -6 18 -9 23 -6 4 2 46 -6 92 -20 46 -13 101 -24 122 -24 21 0 46 -4
56 -9 14 -8 69 -17 292 -46 105 -14 257 -57 355 -101 134 -59 284 -135 317
-161 92 -70 126 -93 136 -93 7 0 22 -10 34 -22 30 -30 141 -108 147 -103 3 4
-26 50 -62 96 -6 8 -25 24 -40 34 -15 10 -35 31 -43 46 -8 16 -22 29 -31 29
-8 0 -31 17 -51 38 -19 20 -47 44 -62 52 -15 8 -46 27 -68 42 -58 39 -311 167
-342 174 -3 0 -12 3 -20 7 -60 23 -179 60 -200 61 -14 1 -50 8 -80 14 -66 15
-219 42 -240 43 -8 1 -31 5 -50 10 -19 4 -55 10 -79 13 -24 3 -64 12 -90 20
-25 8 -59 17 -76 20 -16 2 -32 5 -35 6 -3 1 -9 2 -14 1 -4 -1 -13 3 -20 8 -6
5 -33 14 -61 20 -63 13 -267 67 -455 122 -80 22 -152 42 -160 44 -14 2 -29 7
-67 22 -10 3 -28 8 -41 9 -13 2 -29 7 -35 12 -7 5 -30 15 -52 22 -22 7 -78 29
-125 50 -47 20 -98 40 -115 44 -28 6 -29 5 -11 -9 15 -11 16 -15 5 -15 -14 0
-58 26 -69 40 -3 4 -16 13 -29 20 -13 6 -44 27 -68 46 -25 19 -50 34 -56 34
-7 0 -28 13 -48 29 -25 21 -38 43 -47 77 -31 123 -41 179 -44 242 -2 64 42
322 55 322 5 0 6 -12 3 -27 -4 -16 -8 -62 -11 -103 -2 -41 -7 -99 -11 -127 -4
-36 -3 -53 5 -53 6 0 11 16 11 35 0 57 47 237 90 342 44 106 110 227 165 299
36 47 49 43 18 -4 -32 -49 -42 -66 -76 -137 -45 -93 -94 -235 -89 -258 1 -4
-3 -18 -10 -30 -20 -39 -36 -168 -33 -282 3 -135 34 -271 77 -332 34 -51 79
-78 105 -64 17 9 153 36 258 51 28 4 86 15 130 25 44 9 85 18 90 19 6 1 15 4
20 8 6 3 26 9 45 13 53 11 127 35 168 56 20 11 41 19 47 20 5 0 44 24 85 52
68 47 79 60 112 127 20 41 35 80 33 87 -2 7 1 15 6 19 7 4 8 25 4 55 -4 27 -4
49 0 49 11 0 113 -59 117 -68 2 -4 28 -29 57 -57 32 -29 47 -40 38 -25 -9 14
-18 35 -20 45 -9 44 -97 235 -109 235 -5 0 -8 7 -8 15 0 7 -7 18 -16 23 -35
20 14 38 121 47 11 1 27 4 35 8 8 3 33 10 55 16 l40 10 -44 -5 c-30 -4 -41 -3
-37 5 4 6 0 11 -11 11 -15 0 -15 2 -3 10 9 5 19 5 26 -1 8 -7 19 -7 31 -1 15
8 43 16 118 35 6 1 15 5 20 9 6 4 51 20 100 37 49 17 96 37 104 45 9 7 41 26
71 41 30 15 69 35 85 43 31 16 170 116 192 138 7 7 23 21 36 31 25 19 137 163
137 175 0 4 -50 -30 -111 -76 -61 -46 -130 -89 -153 -96 -22 -6 -48 -19 -57
-27 -29 -25 -249 -132 -287 -139 -21 -4 -60 -22 -89 -40 -28 -18 -67 -36 -87
-39 -19 -4 -40 -13 -46 -20 -6 -7 -43 -23 -83 -35 -39 -12 -93 -31 -119 -41
-26 -10 -58 -19 -72 -19 -14 0 -26 -3 -26 -7 0 -5 -33 -9 -73 -10 -48 -1 -65
1 -52 7 15 6 7 8 -30 8 -27 0 -42 -2 -32 -5 32 -8 11 -28 -27 -27 -43 2 -95
41 -74 57 9 6 8 7 -3 4 -24 -8 -49 24 -104 128 -26 50 -59 107 -71 127 -13 21
-24 43 -24 50 0 6 -9 31 -21 55 -21 44 -51 57 -63 28 -3 -8 -10 -15 -15 -15
-11 0 -161 150 -243 243 -32 36 -85 109 -119 164 -34 54 -74 114 -90 133 -16
19 -45 55 -64 80 -20 25 -59 73 -86 106 -111 136 -174 324 -166 495 2 46 7 91
10 99 3 8 8 56 11 105 3 50 6 99 7 110 4 46 11 45 -235 45 l-234 0 34 -67 c18
-38 51 -106 72 -153 22 -47 47 -101 56 -120 22 -49 39 -112 23 -87 -7 10 -30
44 -53 75 -22 31 -51 80 -64 107 -13 28 -41 75 -61 105 -20 30 -49 74 -63 98
l-26 42 -85 0 c-47 0 -85 -3 -85 -6z m5440 -659 c7 -8 18 -15 24 -15 7 0 50
-25 96 -55 46 -30 87 -55 92 -55 4 0 8 -4 8 -10 0 -14 -49 -8 -62 7 -6 7 -16
13 -23 13 -7 0 -32 17 -56 39 -24 21 -58 45 -76 54 -17 9 -35 21 -38 27 -10
16 21 12 35 -5z m-982 -302 c34 -68 73 -139 88 -158 14 -19 39 -61 54 -93 16
-31 43 -73 62 -93 47 -51 98 -116 98 -126 0 -5 22 -26 49 -46 27 -21 67 -57
89 -81 22 -23 55 -53 73 -66 36 -25 46 -34 119 -97 25 -22 69 -53 98 -68 29
-16 58 -37 63 -47 6 -11 20 -23 32 -29 25 -10 86 -47 167 -99 72 -45 43 -53
-43 -11 -34 16 -75 33 -92 37 -61 15 -364 179 -471 255 -105 76 -225 184 -247
225 -6 10 -25 37 -43 59 -18 22 -51 81 -74 130 -23 50 -46 97 -50 107 -17 31
-68 173 -83 228 -16 56 -37 194 -37 233 1 25 51 -65 148 -260z m1042 -383 c0
-5 -4 -10 -10 -10 -5 0 -10 5 -10 10 0 6 5 10 10 10 6 0 10 -4 10 -10z m-3974
-245 c11 -27 0 -36 -24 -19 -12 8 -20 20 -17 25 9 14 35 11 41 -6z m4794 -25
c-18 -12 -53 -13 -46 -2 2 4 17 8 33 10 21 1 24 -1 13 -8z m-4974 -195 c-12
-112 -15 -519 -4 -695 7 -114 -3 -126 -17 -20 -4 30 -16 100 -26 155 -11 55
-22 134 -24 175 -3 55 -8 77 -20 86 -15 11 -16 31 -13 161 4 157 11 183 72
266 l21 29 11 -29 c9 -21 9 -53 0 -128z m3423 -50 c24 -36 48 -65 52 -65 13 0
89 -83 89 -96 0 -6 15 -34 34 -61 123 -179 179 -356 178 -567 -1 -106 -10
-214 -20 -230 -3 -6 -8 -20 -9 -30 -2 -11 -15 -43 -28 -70 l-25 -51 7 45 c15
88 9 320 -11 415 -10 50 -22 95 -26 100 -4 6 -21 53 -38 105 -30 97 -82 213
-118 266 -21 30 -54 97 -54 109 0 5 -26 60 -88 188 -2 4 0 7 5 7 4 0 28 -29
52 -65z m-266 -72 c13 -129 7 -223 -12 -223 -3 0 -7 65 -8 145 -2 151 9 194
20 78z m-3126 -125 c-3 -7 -5 -2 -5 12 0 14 2 19 5 13 2 -7 2 -19 0 -25z m572
20 l56 0 -42 -10 c-45 -11 -113 -3 -113 13 0 6 9 7 22 3 12 -3 47 -7 77 -6z
m-851 -110 c-9 -57 -17 -147 -18 -200 0 -59 -4 -98 -10 -98 -13 0 -13 202 1
255 5 22 12 54 15 70 9 57 14 75 22 75 4 0 0 -46 -10 -102z m289 25 c-3 -10
-5 -4 -5 12 0 17 2 24 5 18 2 -7 2 -21 0 -30z m21 -178 l-1 -70 -11 100 c-7
55 -9 105 -7 110 9 17 20 -66 19 -140z m-501 -112 c-3 -10 -5 -4 -5 12 0 17 2
24 5 18 2 -7 2 -21 0 -30z m505 -5 c-9 -9 -12 -7 -12 12 0 19 3 21 12 12 9 -9
9 -15 0 -24z m4189 -254 c13 -30 27 -54 31 -54 10 0 58 -103 58 -123 0 -7 6
-23 13 -37 20 -39 22 -208 3 -245 -9 -16 -16 -37 -16 -45 0 -8 -8 -31 -18 -50
-11 -19 -22 -48 -26 -63 -5 -20 -11 -27 -22 -23 -12 4 -14 1 -9 -14 4 -13 1
-22 -9 -26 -9 -3 -26 -27 -38 -52 -42 -85 -155 -180 -232 -197 -6 -1 -24 -7
-39 -13 -16 -7 -31 -12 -33 -12 -18 0 39 46 107 86 21 12 59 53 59 64 0 3 29
50 65 105 36 54 65 104 65 110 0 7 7 19 16 26 18 15 64 110 64 133 0 8 5 27
12 41 13 29 -2 176 -27 258 -23 77 -76 173 -123 224 -72 79 -70 91 6 24 53
-47 76 -76 93 -117z m-964 -56 c-3 -8 -6 -5 -6 6 -1 11 2 17 5 13 3 -3 4 -12
1 -19z m35 -163 c15 -52 14 -48 21 -65 3 -8 14 -40 23 -70 9 -30 21 -61 27
-67 5 -7 6 -13 2 -13 -4 0 -3 -6 3 -12 12 -16 15 -138 3 -156 -5 -8 -11 20
-15 74 -4 48 -16 113 -27 144 -32 94 -69 233 -68 260 1 18 4 13 10 -15 6 -22
15 -58 21 -80z m643 18 c-5 -21 -8 -47 -9 -58 -1 -11 -4 -24 -8 -30 -3 -5 -9
-31 -13 -58 -4 -26 -11 -49 -15 -52 -4 -3 -14 -29 -20 -57 -9 -37 -37 -89 -93
-170 -74 -110 -94 -131 -186 -200 -77 -58 -229 -127 -280 -128 -20 0 -22 3
-17 26 6 22 4 25 -10 20 -16 -6 -33 8 -34 25 0 4 30 12 68 18 111 19 200 56
312 131 30 20 63 39 73 43 9 3 17 15 17 26 0 10 19 43 43 73 61 75 90 131 116
223 12 44 27 94 32 111 5 17 9 45 9 62 0 18 5 32 11 32 8 0 9 -12 4 -37z
m-4089 -116 c27 -24 74 -60 104 -79 30 -19 66 -48 80 -63 14 -15 38 -34 55
-42 32 -17 43 -29 138 -148 35 -44 67 -91 72 -104 4 -12 18 -39 31 -58 13 -20
24 -44 24 -53 0 -10 7 -23 15 -30 8 -7 15 -18 15 -24 0 -6 9 -28 20 -49 11
-20 20 -41 20 -46 0 -5 9 -29 20 -55 12 -25 19 -47 18 -49 -2 -2 2 -10 9 -18
6 -8 28 -61 48 -119 96 -274 115 -332 115 -346 0 -8 4 -22 10 -32 5 -9 15 -30
22 -47 14 -37 13 -34 22 -70 4 -16 16 -52 26 -80 27 -72 33 -89 35 -95 0 -3 8
-27 17 -55 9 -27 20 -65 23 -83 l7 -33 -77 3 -78 3 -28 90 c-15 50 -28 102
-28 117 -1 15 -5 29 -10 33 -5 3 -17 31 -26 63 -9 31 -20 66 -25 77 -5 11 -26
70 -46 130 -69 206 -74 219 -84 229 -6 6 -10 18 -10 28 0 11 -9 36 -20 58 -11
22 -20 50 -20 63 0 12 -4 27 -10 33 -5 5 -25 50 -43 99 -85 222 -154 378 -197
441 -16 25 -30 49 -30 53 0 4 -9 16 -20 26 -11 10 -20 23 -20 29 0 11 -70 84
-195 202 -76 72 -59 73 21 1z m3295 -554 c13 -16 12 -17 -3 -4 -10 7 -18 15
-18 17 0 8 8 3 21 -13z m115 -67 c8 -8 14 -19 14 -24 0 -13 88 -49 152 -62 76
-15 391 -29 453 -20 28 4 65 11 84 15 25 6 32 5 27 -3 -4 -7 -15 -12 -25 -12
-9 0 -21 -4 -27 -9 -5 -6 -21 -11 -36 -13 -15 -2 -30 -7 -34 -11 -4 -3 -33 -9
-66 -13 -32 -4 -61 -11 -64 -15 -6 -11 -92 -3 -194 18 -41 8 -87 17 -103 19
-15 2 -45 13 -67 24 -21 11 -45 20 -51 20 -6 0 -31 10 -55 21 -43 22 -63 57
-41 71 16 10 16 10 33 -6z m629 -386 c17 -7 15 -9 -10 -8 -16 0 -41 4 -55 8
-23 7 -22 8 10 8 19 0 44 -3 55 -8z m-5508 -5412 c-2 -24 -4 -7 -4 37 0 44 2
63 4 43 2 -21 2 -57 0 -80z" />
        <path d="M7498 6473 c6 -2 18 -2 25 0 6 3 1 5 -13 5 -14 0 -19 -2 -12 -5z" />
        <path d="M3456 10203 c-19 -120 3 -302 44 -359 34 -47 122 -81 243 -93 81 -7
88 -2 92 67 2 26 4 52 4 58 1 6 10 23 21 37 20 25 21 26 58 10 24 -11 66 -16
122 -16 184 0 245 76 214 265 -10 59 -24 34 -24 -43 0 -61 -3 -73 -23 -91 -35
-32 -87 -45 -153 -39 -137 12 -168 8 -214 -29 -50 -39 -104 -144 -89 -171 4
-9 5 -19 2 -23 -14 -13 -62 -5 -84 15 -24 20 -24 21 -2 16 22 -5 52 17 36 26
-4 2 -33 12 -63 20 -32 10 -73 31 -95 51 -40 34 -40 34 -42 113 -1 51 3 89 12
106 7 14 16 41 20 59 4 18 12 39 17 46 8 9 -1 12 -39 12 -50 0 -50 0 -57 -37z" />
        <path d="M4766 10218 c10 -11 28 -31 39 -43 11 -12 58 -65 103 -118 46 -53
106 -115 133 -138 53 -44 123 -168 135 -238 3 -20 13 -58 22 -86 18 -55 24
-342 9 -445 l-7 -55 24 45 c13 25 27 61 31 80 4 19 12 46 18 60 5 14 12 40 14
59 2 19 8 43 14 53 16 29 25 263 10 272 -6 4 -11 21 -11 38 0 100 -78 295
-133 331 -12 8 -44 36 -72 62 -27 26 -83 69 -123 96 -71 48 -74 49 -149 49
l-76 0 19 -22z" />
        <path d="M5959 10215 c-1 -14 -2 -60 -4 -102 -1 -43 -5 -91 -8 -108 -8 -39
-14 -77 -22 -145 -4 -30 -14 -80 -22 -110 -8 -30 -17 -68 -19 -85 -2 -16 -13
-48 -23 -70 -11 -23 -28 -68 -39 -100 -11 -33 -34 -89 -51 -125 -17 -36 -31
-71 -31 -78 0 -7 -13 -32 -28 -55 -16 -23 -42 -64 -57 -91 l-28 -48 34 17 c72
37 230 215 259 291 6 14 21 40 34 57 13 18 27 43 31 57 4 14 18 45 30 70 13
25 28 72 35 105 7 33 16 67 21 76 8 15 19 64 23 99 1 9 5 21 9 27 9 14 8 308
0 330 -4 9 -26 13 -74 13 -67 0 -69 -1 -70 -25z" />
        <path d="M4855 9753 c-32 -3 -147 -30 -385 -89 -80 -19 -170 -41 -200 -48 -60
-14 -81 -20 -210 -61 -76 -24 -189 -71 -230 -96 -8 -5 -33 -18 -56 -28 -62
-29 -112 -77 -120 -116 -8 -45 14 -83 92 -160 36 -36 64 -73 64 -84 0 -11 5
-42 10 -68 9 -43 16 -52 56 -76 68 -41 121 -57 195 -57 60 0 75 5 173 54 59
30 126 70 149 88 23 19 74 55 112 81 65 43 309 266 293 267 -5 0 -27 -17 -49
-37 -23 -21 -52 -42 -65 -48 -12 -5 -50 -35 -84 -65 -34 -30 -80 -66 -103 -79
-108 -62 -200 -111 -208 -111 -4 0 -23 -9 -41 -19 -43 -25 -178 -36 -228 -18
-49 17 -92 52 -107 88 -14 34 -15 34 67 44 203 26 349 63 480 122 138 63 311
149 357 179 30 19 58 33 61 30 2 -3 -3 -8 -12 -12 -9 -3 -16 -11 -16 -17 0 -5
9 -2 20 8 11 10 18 20 15 23 -3 3 1 12 8 21 8 9 22 36 31 61 10 25 24 59 31
75 18 41 48 136 44 139 -7 6 -113 12 -144 9z m-16 -180 c0 -5 -27 -30 -59 -58
-59 -49 -208 -129 -265 -141 -34 -7 -102 -40 -125 -59 -8 -7 -38 -20 -66 -28
-28 -8 -77 -27 -108 -41 -31 -14 -61 -26 -67 -26 -5 0 -29 -9 -51 -20 -51 -24
-155 -27 -201 -5 -18 8 -42 30 -55 49 -20 29 -22 38 -12 56 15 28 98 80 127
80 13 0 36 6 51 14 27 14 240 90 300 107 17 5 49 14 70 20 59 17 138 29 265
42 170 17 197 18 196 10z" />
        <path d="M3760 9079 c0 -5 5 -7 10 -4 6 3 10 8 10 11 0 2 -4 4 -10 4 -5 0 -10
-5 -10 -11z" />
        <path d="M7725 8998 c32 -23 98 -38 156 -37 l54 2 -55 7 c-49 7 -111 21 -158
37 -12 4 -11 1 3 -9z" />
        <path d="M8765 8680 c-3 -5 -1 -10 4 -10 6 0 11 5 11 10 0 6 -2 10 -4 10 -3 0
-8 -4 -11 -10z" />
        <path d="M4223 8263 c9 -2 23 -2 30 0 6 3 -1 5 -18 5 -16 0 -22 -2 -12 -5z" />
        <path d="M4510 7653 c0 -21 51 -138 69 -157 10 -12 28 -39 39 -61 18 -37 101
-134 178 -210 35 -35 164 -105 143 -77 -24 30 -134 156 -145 167 -7 5 -37 45
-68 87 -31 43 -65 86 -74 95 -10 10 -37 43 -60 74 -46 62 -82 97 -82 82z" />
        <path d="M7740 6156 c0 -2 8 -10 18 -17 15 -13 16 -12 3 4 -13 16 -21 21 -21
13z" />
        <path d="M3515 4785 c-4 -11 -20 -49 -35 -85 -33 -78 -42 -102 -46 -115 -5
-19 -27 -80 -37 -105 -6 -14 -11 -30 -13 -36 -1 -7 -9 -45 -19 -85 -29 -130
-16 -302 15 -188 12 45 28 89 55 157 9 20 17 46 20 57 2 11 9 38 16 60 41 148
77 423 44 340z" />
        <path d="M3900 3146 c0 -13 38 -81 60 -106 12 -14 33 -47 47 -75 24 -47 54
-90 88 -126 8 -9 15 -19 15 -22 0 -4 7 -15 16 -24 8 -10 41 -52 71 -93 31 -41
76 -96 100 -122 23 -26 43 -52 43 -58 0 -15 228 -241 278 -274 23 -16 42 -32
42 -37 0 -22 236 -178 350 -232 110 -52 135 -61 245 -91 55 -15 111 -31 125
-36 155 -51 514 -46 734 11 44 12 108 28 141 36 33 8 70 17 83 20 12 3 25 9
28 14 3 5 13 9 22 9 9 0 28 6 42 13 14 8 41 17 60 20 75 16 348 154 417 213
34 29 72 58 85 65 13 6 49 36 81 66 32 29 61 53 65 53 4 0 13 10 21 22 7 12
-24 -9 -69 -47 -46 -37 -104 -79 -129 -92 -25 -14 -62 -37 -81 -52 -44 -34
-190 -105 -250 -121 -24 -7 -62 -20 -85 -30 -22 -10 -58 -23 -80 -30 -22 -6
-47 -14 -55 -17 -25 -10 -43 -14 -100 -24 -30 -6 -62 -11 -70 -13 -8 -1 -22
-5 -30 -8 -21 -9 -93 -22 -104 -19 -5 1 -16 -1 -25 -5 -32 -14 -101 -18 -332
-19 -162 0 -244 4 -260 12 -13 6 -47 13 -75 16 -28 2 -65 11 -84 20 -18 10
-41 17 -50 17 -19 0 -141 39 -155 50 -5 5 -41 21 -80 36 -38 15 -74 30 -80 35
-5 4 -32 19 -60 35 -27 15 -70 44 -95 65 -25 20 -61 45 -80 54 -64 32 -342
290 -386 357 -13 20 -50 65 -82 100 -32 35 -75 88 -95 118 -20 30 -57 75 -83
100 -25 25 -53 58 -61 73 -8 15 -22 36 -31 45 -9 10 -34 37 -54 62 -21 24 -38
40 -38 36z" />
        <path d="M10080 80 l0 -80 80 0 80 0 0 80 0 80 -80 0 -80 0 0 -80z" />
    </g>
</svg>