<svg version="1.0" xmlns="http://www.w3.org/2000/svg" width="1280.000000pt" height="1198.000000pt"
        viewBox="0 0 1280.000000 1198.000000" preserveAspectRatio="xMidYMid meet">
        <g transform="translate(0.000000,1150.000000) scale(0.09,-0.090000)" fill="var(--svg-color)" stroke="none">
                <path d="M11265 11955 c-114 -29 -134 -37 -171 -67 -16 -14 -83 -61 -149 -106
-141 -95 -287 -211 -554 -440 -107 -92 -240 -205 -295 -251 -123 -104 -269
-235 -475 -429 -449 -423 -801 -752 -1021 -953 -415 -381 -625 -586 -1687
-1647 -1269 -1269 -1317 -1315 -1908 -1857 -687 -630 -678 -621 -930 -810
-370 -277 -591 -414 -740 -458 -28 -8 -93 -20 -145 -27 -54 -7 -103 -19 -113
-28 -28 -25 -114 -164 -222 -362 -55 -102 -117 -210 -136 -240 -20 -30 -62
-95 -94 -145 -91 -141 -223 -310 -415 -528 -205 -234 -269 -297 -516 -513 -99
-88 -272 -240 -385 -338 -416 -365 -811 -795 -1024 -1117 -79 -119 -215 -377
-215 -407 0 -10 -11 -52 -25 -93 -14 -41 -31 -116 -37 -167 -10 -80 -10 -108
4 -190 10 -53 24 -121 33 -150 14 -45 20 -54 46 -59 16 -3 39 -17 50 -31 33
-42 83 -71 227 -128 163 -66 259 -90 407 -104 61 -6 152 -18 204 -27 76 -12
144 -14 360 -10 146 3 296 10 332 16 36 6 157 20 270 31 281 28 508 56 631 79
57 11 121 22 143 26 73 11 737 154 970 209 431 101 1033 256 1307 336 671 199
860 265 1118 395 147 74 212 96 224 76 12 -19 46 -12 55 12 12 32 36 50 124
96 56 29 85 39 103 35 22 -6 24 -3 24 27 1 29 7 38 43 61 134 85 330 317 477
565 40 68 77 123 81 123 14 0 -40 -143 -102 -268 -106 -214 -239 -365 -454
-513 -267 -184 -394 -244 -970 -462 -477 -179 -1190 -402 -1515 -472 -58 -12
-230 -55 -383 -94 -338 -86 -1054 -236 -1221 -256 -66 -8 -167 -21 -224 -30
-287 -43 -689 -77 -987 -82 -356 -6 -539 5 -647 41 -40 13 -140 40 -223 60
-121 29 -172 47 -264 93 -95 48 -120 66 -150 105 -53 72 -65 65 -59 -34 l5
-82 54 -49 c77 -70 128 -103 211 -139 118 -50 328 -118 398 -129 36 -5 124
-18 196 -29 106 -16 182 -20 390 -20 334 0 777 24 914 50 58 10 130 22 160 26
102 12 743 123 920 159 261 54 881 206 1160 284 135 38 353 100 485 137 382
107 594 181 1025 359 129 53 262 108 295 121 109 45 169 77 370 199 107 65
149 98 241 189 61 61 128 138 149 171 59 92 230 452 260 546 14 46 44 156 65
244 46 189 60 232 133 390 30 66 103 226 162 355 59 129 151 332 205 450 150
331 207 438 342 639 85 126 338 458 450 591 58 69 174 208 259 308 177 213
496 531 611 609 71 48 94 15 138 -207 65 -330 86 -658 76 -1208 -7 -370 -13
-488 -46 -817 -10 -110 -20 -222 -22 -249 l-2 -48 86 -62 c159 -113 349 -275
425 -361 54 -61 82 -85 99 -85 12 0 25 4 29 9 3 5 29 17 58 27 90 30 349 143
417 183 36 21 82 48 104 60 21 12 72 52 113 89 l74 67 -6 61 c-3 33 -12 87
-21 120 -37 137 -45 188 -53 359 -4 98 -5 283 -1 410 8 219 10 241 54 460 75
366 130 557 249 855 73 186 261 580 403 849 77 147 290 480 418 655 133 182
170 244 301 506 208 416 278 618 350 1010 47 259 58 405 52 695 -5 247 -11
302 -63 534 -104 465 -327 938 -702 1491 -69 102 -168 248 -220 325 -156 231
-266 356 -352 400 -60 30 -80 30 -195 0z m233 -131 c9 -25 12 -75 10 -140 -3
-97 -5 -105 -45 -182 -44 -84 -210 -379 -316 -562 -62 -107 -224 -348 -351
-522 -222 -302 -351 -477 -437 -588 -53 -69 -136 -181 -184 -250 -136 -194
-157 -218 -420 -495 -137 -143 -309 -332 -384 -420 -233 -273 -287 -333 -536
-595 -272 -287 -354 -377 -610 -670 -99 -113 -280 -308 -403 -435 -122 -126
-383 -403 -579 -615 -429 -462 -701 -741 -963 -983 -107 -100 -305 -287 -440
-416 -312 -300 -451 -427 -607 -553 -107 -86 -146 -110 -265 -166 -117 -54
-153 -66 -216 -73 -161 -17 -230 -11 -444 35 -224 49 -322 78 -473 138 -55 22
-151 58 -214 80 -62 21 -140 52 -173 69 -60 30 -272 117 -340 139 -40 12 -44
22 -28 65 9 24 14 26 42 19 18 -3 87 -28 153 -54 66 -26 131 -51 145 -55 14
-4 102 -38 196 -76 180 -72 330 -124 609 -210 190 -59 185 -59 513 -47 184 6
202 11 239 63 10 14 57 52 104 85 47 32 147 116 221 187 74 70 269 256 434
413 375 357 1254 1233 1364 1360 45 52 191 210 325 350 133 140 432 460 664
710 233 250 501 538 596 640 96 102 204 221 242 266 37 45 165 191 283 325
118 134 295 336 394 449 99 113 237 266 306 340 148 160 290 330 417 501 51
68 122 162 158 209 36 47 124 173 197 280 72 107 154 224 183 260 64 81 120
165 172 255 133 233 196 340 233 395 60 88 157 295 169 360 5 30 13 79 16 108
8 62 24 64 43 6z m-201 -31 c-3 -21 -15 -64 -27 -97 l-22 -58 -41 6 c-32 5
-51 1 -91 -18 -28 -14 -57 -35 -64 -46 -20 -33 6 -66 58 -75 22 -4 42 -10 45
-14 8 -14 -160 -296 -312 -526 -469 -707 -799 -1121 -1618 -2025 -452 -498
-538 -595 -617 -690 -44 -52 -223 -243 -397 -425 -298 -310 -511 -534 -1357
-1432 -459 -487 -867 -898 -1264 -1273 -631 -596 -696 -646 -890 -686 -61 -12
-107 -15 -167 -10 -132 10 -367 75 -598 165 -44 17 -117 42 -163 56 -46 13
-99 34 -118 46 -40 24 -37 32 33 80 49 34 52 43 21 60 -18 10 -35 5 -114 -36
-92 -47 -92 -47 -143 -35 -28 7 -53 16 -56 21 -3 4 40 32 97 60 170 85 261
144 518 338 414 312 539 416 923 774 93 87 215 197 271 245 55 47 139 122 186
167 47 45 132 123 190 174 222 198 523 496 1035 1026 292 303 728 740 968 973
240 233 437 427 439 430 6 14 784 758 833 797 97 77 223 194 565 525 317 307
459 437 960 880 433 383 810 660 899 660 22 0 23 -3 18 -37z m331 -630 c176
-234 289 -420 419 -693 89 -184 115 -250 195 -475 73 -208 80 -233 112 -415
51 -287 57 -347 63 -660 6 -338 -1 -417 -42 -503 -32 -69 -110 -167 -132 -167
-14 0 -15 10 -9 74 9 100 -10 284 -38 370 -35 107 -54 182 -72 281 -9 50 -28
122 -41 160 -14 39 -42 126 -63 195 -64 208 -79 244 -152 372 -39 68 -105 188
-147 268 -94 177 -129 232 -212 336 -35 43 -88 111 -118 149 -30 39 -89 107
-130 153 -42 45 -78 87 -79 93 -2 5 28 58 66 117 38 59 80 127 92 152 40 81
181 310 190 310 5 0 49 -53 98 -117z m-523 -769 c172 -233 257 -358 275 -406
11 -30 36 -81 56 -114 67 -110 95 -175 159 -367 62 -188 99 -332 89 -349 -15
-24 -46 34 -113 211 -47 124 -107 239 -181 351 -21 30 -49 75 -63 100 -48 86
-191 266 -298 377 -60 62 -109 118 -109 124 0 11 61 118 83 147 19 24 42 7
102 -74z m1289 -2153 c-48 -73 -52 -91 -14 -71 16 8 25 9 33 1 10 -10 -10 -44
-111 -184 -42 -59 -332 -333 -464 -439 -123 -99 -469 -352 -528 -386 -25 -14
-117 -74 -205 -133 -181 -120 -440 -282 -720 -449 -230 -137 -466 -289 -718
-463 -104 -71 -190 -127 -193 -124 -16 16 175 187 411 368 366 282 585 438
935 669 206 137 425 283 485 326 61 43 188 131 282 196 257 177 521 413 696
622 80 95 143 153 155 142 2 -2 -18 -36 -44 -75z m-308 -688 c-13 -27 -90
-158 -171 -292 -192 -319 -289 -497 -453 -831 -80 -163 -137 -268 -139 -257
-3 10 3 64 11 119 18 112 99 361 228 703 44 116 89 236 100 267 18 53 26 63
101 117 115 82 327 221 338 221 5 0 -1 -21 -15 -47z m-1845 -1543 c122 -23
234 -98 299 -200 50 -78 64 -148 65 -305 0 -154 -23 -292 -125 -770 -106 -496
-140 -717 -170 -1110 -22 -280 -35 -403 -44 -412 -3 -3 -38 25 -78 63 -91 86
-274 238 -339 282 -59 40 -57 16 -28 348 18 210 20 288 15 639 -10 779 -37
1022 -138 1253 -48 110 -50 105 67 151 137 55 359 83 476 61z m-2648 -1080
c229 -51 356 -98 426 -157 30 -26 32 -31 21 -50 -16 -25 -9 -47 24 -69 33 -21
56 -12 56 21 0 14 5 25 10 25 13 0 30 -43 30 -75 l0 -24 -52 15 c-69 20 -152
61 -260 127 -67 41 -103 56 -155 66 -161 28 -428 40 -493 21 -19 -6 -100 -24
-180 -41 -225 -48 -300 -76 -675 -257 -408 -197 -841 -450 -1002 -585 -58 -48
-325 -178 -445 -216 -186 -59 -360 -72 -532 -42 -130 24 -353 94 -447 142
-114 57 -244 111 -421 174 -200 72 -375 152 -430 195 -44 36 -82 52 -103 44
-19 -8 -54 2 -79 21 -19 14 -19 15 -2 34 10 11 44 69 75 128 55 107 56 108 91
107 49 -2 130 -39 130 -60 0 -9 -22 -53 -50 -99 -27 -46 -50 -90 -50 -99 0
-20 76 -56 194 -91 44 -13 131 -45 191 -70 61 -24 116 -45 123 -45 12 0 102
-34 422 -160 213 -83 403 -120 625 -120 l110 0 156 64 c135 54 183 81 355 193
269 176 299 194 566 337 128 68 297 160 375 204 144 81 419 209 551 256 264
94 635 132 845 86z m3177 -515 c-28 -171 -42 -456 -38 -741 l5 -291 -65 -32
c-48 -24 -68 -29 -76 -21 -16 16 -8 308 10 390 8 36 22 116 30 179 8 63 40
220 70 349 29 129 54 237 54 240 0 3 4 2 10 -4 6 -6 6 -30 0 -69z m-7862 -291
c17 -7 32 -16 32 -19 0 -40 -145 -212 -364 -431 -173 -173 -242 -232 -217
-187 5 11 49 73 96 138 48 66 145 208 217 315 71 107 135 198 141 202 13 8 46
2 95 -18z m4265 -31 c8 -8 -11 -39 -69 -109 -85 -105 -422 -706 -499 -889 -25
-59 -69 -187 -104 -300 -16 -55 -37 -110 -45 -121 -8 -12 -47 -40 -85 -63 -39
-23 -77 -51 -86 -64 -9 -12 -32 -74 -52 -137 -46 -147 -71 -197 -139 -271 -30
-33 -75 -91 -99 -128 -55 -84 -132 -156 -205 -189 -30 -14 -86 -47 -125 -73
-93 -62 -140 -85 -368 -178 -282 -116 -420 -158 -857 -261 -381 -90 -421 -98
-725 -136 -154 -19 -356 -48 -450 -64 -93 -17 -258 -41 -365 -55 -107 -14
-247 -32 -310 -41 -63 -8 -196 -24 -295 -34 -99 -11 -220 -30 -270 -41 -549
-128 -706 -176 -820 -253 -163 -109 -175 -104 -82 31 63 93 221 259 311 327
90 68 293 168 513 252 59 22 334 81 488 103 158 23 880 92 1160 111 349 23
455 34 585 62 181 38 575 136 675 168 197 64 548 225 685 316 58 38 134 85
168 104 139 77 162 105 162 191 0 53 12 67 80 93 122 48 221 166 237 283 8 61
28 101 57 114 18 9 32 6 67 -10 l44 -22 17 21 c9 11 26 45 37 75 11 30 36 85
55 122 18 38 63 137 100 220 92 213 107 241 209 388 146 209 220 305 301 388
74 75 86 84 99 70z m2800 -758 c251 -187 296 -240 298 -355 1 -33 -1 -63 -4
-66 -3 -4 -72 55 -154 129 -81 75 -191 169 -243 209 -83 65 -95 78 -98 108 -5
47 6 100 21 100 7 0 88 -57 180 -125z m923 79 c-3 -9 -6 -18 -6 -20 0 -2 -7
-4 -15 -4 -18 0 -19 12 -3 28 17 17 31 15 24 -4z m-66 -66 c-1 -25 -107 -126
-160 -153 -30 -15 -93 -35 -140 -45 -48 -10 -96 -24 -108 -31 -25 -16 -40 -6
-23 15 7 9 77 46 154 84 78 38 169 86 202 106 65 39 75 42 75 24z" />
                <path d="M10900 11464 c-46 -20 -136 -90 -161 -126 -23 -32 -18 -64 12 -73 41
-13 208 95 230 148 11 27 10 32 -10 48 -27 22 -26 22 -71 3z" />
                <path d="M10511 11180 c-70 -56 -105 -109 -92 -142 21 -56 54 -45 149 46 81
77 89 92 66 117 -27 30 -66 24 -123 -21z" />
                <path d="M10268 10950 c-54 -36 -138 -123 -138 -144 0 -21 28 -46 52 -46 22 0
106 83 154 152 22 31 24 40 14 53 -18 21 -31 19 -82 -15z" />
                <path d="M9899 10624 c-89 -88 -102 -111 -74 -134 26 -21 59 -3 149 83 71 67
87 88 84 108 -2 19 -10 25 -36 27 -30 3 -42 -5 -123 -84z" />
                <path d="M9579 10343 c-106 -102 -115 -116 -93 -137 34 -34 65 -20 151 67 93
94 110 121 92 143 -26 31 -58 16 -150 -73z" />
                <path d="M9335 10080 c-33 -13 -155 -146 -155 -168 0 -32 35 -37 73 -11 52 36
147 132 147 149 0 18 -19 40 -34 39 -6 0 -20 -4 -31 -9z" />
                <path d="M9024 9812 c-21 -16 -61 -52 -87 -81 -59 -63 -61 -94 -8 -99 30 -3
41 5 122 86 65 64 88 93 83 105 -10 27 -65 21 -110 -11z" />
                <path d="M8724 9538 c-58 -43 -144 -133 -144 -150 0 -23 38 -32 73 -19 31 12
157 131 157 148 0 16 -28 43 -44 43 -7 0 -26 -10 -42 -22z" />
                <path d="M8423 9261 c-44 -34 -107 -103 -126 -138 -13 -21 4 -43 34 -43 42 0
202 157 197 192 -5 39 -47 35 -105 -11z" />
                <path d="M8145 8984 c-48 -24 -125 -105 -125 -131 0 -19 25 -43 44 -43 11 0
146 121 157 141 8 15 7 24 -2 35 -15 18 -37 18 -74 -2z" />
                <path d="M7864 8728 c-69 -73 -94 -109 -94 -134 0 -40 40 -30 115 31 23 18 54
51 69 74 24 34 26 43 16 56 -23 28 -63 18 -106 -27z" />
                <path d="M7623 8491 c-56 -40 -133 -132 -133 -157 0 -12 7 -25 16 -28 25 -9
65 17 148 98 68 66 76 78 66 96 -15 28 -50 25 -97 -9z" />
                <path d="M7334 8202 c-47 -34 -124 -119 -124 -137 0 -22 28 -38 55 -31 14 4
57 38 96 76 54 52 70 74 67 92 -5 35 -46 35 -94 0z" />
                <path d="M7020 7903 c-77 -85 -83 -95 -65 -119 13 -18 15 -18 60 5 64 34 137
116 133 150 -2 21 -9 27 -34 29 -27 3 -39 -5 -94 -65z" />
                <path d="M6805 7692 c-46 -29 -125 -119 -125 -142 0 -54 67 -31 145 51 40 42
55 65 53 81 -4 30 -35 34 -73 10z" />
                <path d="M6538 7407 c-29 -24 -66 -62 -82 -85 -28 -39 -29 -44 -14 -59 14 -14
21 -14 47 -3 45 18 151 135 151 165 0 39 -41 32 -102 -18z" />
                <path d="M6282 7141 c-77 -64 -152 -153 -152 -179 0 -24 39 -40 63 -25 28 16
207 212 207 227 0 14 -20 26 -45 26 -8 0 -40 -22 -73 -49z" />
                <path d="M5978 6816 c-57 -46 -148 -148 -148 -165 0 -6 8 -15 18 -20 24 -13
44 0 151 92 76 66 91 84 91 108 0 46 -45 40 -112 -15z" />
                <path d="M5644 6468 c-89 -85 -102 -104 -82 -125 21 -20 58 -3 118 53 60 56
93 106 84 128 -12 31 -44 16 -120 -56z" />
                <path d="M5368 6226 c-79 -68 -134 -138 -123 -155 3 -6 20 -11 36 -11 23 0 47
17 114 81 92 89 108 115 79 136 -10 7 -21 13 -26 13 -4 0 -40 -29 -80 -64z" />
                <path d="M5110 5983 c-62 -43 -190 -156 -195 -174 -8 -24 10 -49 35 -49 20 0
95 54 161 116 76 71 82 80 69 103 -13 25 -37 27 -70 4z" />
                <path d="M4759 5682 c-24 -16 -72 -56 -107 -90 -70 -68 -77 -95 -26 -100 35
-3 115 51 198 137 42 42 47 52 36 66 -19 23 -51 18 -101 -13z" />
                <path d="M4450 5399 c-61 -37 -149 -109 -161 -131 -8 -16 -8 -24 4 -35 12 -12
21 -13 48 -4 43 14 163 102 185 135 34 53 -11 74 -76 35z" />
                <path d="M4113 5144 c-53 -36 -103 -87 -103 -105 0 -18 31 -22 71 -10 51 15
155 111 146 134 -10 27 -57 19 -114 -19z" />
                <path d="M3883 4969 c-23 -11 -62 -38 -85 -59 -39 -35 -42 -40 -27 -55 14 -14
20 -14 57 -2 48 17 142 83 142 101 0 15 -20 36 -34 36 -6 0 -30 -9 -53 -21z" />
        </g>
</svg>